<svg id="SvgjsSvg1001" width="1036" height="726" xmlns="http://www.w3.org/2000/svg" version="1.1" xmlns:xlink="http://www.w3.org/1999/xlink" xmlns:svgjs="http://svgjs.com/svgjs"><defs id="SvgjsDefs1002"><marker id="SvgjsMarker1050" markerWidth="14" markerHeight="10" refX="10" refY="5" viewBox="0 0 14 10" orient="auto" markerUnits="userSpaceOnUse" stroke-dasharray="0,0"><path id="SvgjsPath1051" d="M0,0 L14,5 L0,10 L0,0" fill="#323232" stroke="#323232" stroke-width="1"></path></marker><marker id="SvgjsMarker1054" markerWidth="14" markerHeight="10" refX="10" refY="5" viewBox="0 0 14 10" orient="auto" markerUnits="userSpaceOnUse" stroke-dasharray="0,0"><path id="SvgjsPath1055" d="M0,0 L14,5 L0,10 L0,0" fill="#212121" stroke="#212121" stroke-width="1"></path></marker><marker id="SvgjsMarker1066" markerWidth="14" markerHeight="10" refX="10" refY="5" viewBox="0 0 14 10" orient="auto" markerUnits="userSpaceOnUse" stroke-dasharray="0,0"><path id="SvgjsPath1067" d="M0,0 L14,5 L0,10 L0,0" fill="#323232" stroke="#323232" stroke-width="1"></path></marker><marker id="SvgjsMarker1070" markerWidth="14" markerHeight="10" refX="10" refY="5" viewBox="0 0 14 10" orient="auto" markerUnits="userSpaceOnUse" stroke-dasharray="0,0"><path id="SvgjsPath1071" d="M0,0 L14,5 L0,10 L0,0" fill="#323232" stroke="#323232" stroke-width="1"></path></marker><marker id="SvgjsMarker1082" markerWidth="14" markerHeight="10" refX="10" refY="5" viewBox="0 0 14 10" orient="auto" markerUnits="userSpaceOnUse" stroke-dasharray="0,0"><path id="SvgjsPath1083" d="M0,0 L14,5 L0,10 L0,0" fill="#323232" stroke="#323232" stroke-width="1"></path></marker><marker id="SvgjsMarker1086" markerWidth="14" markerHeight="10" refX="10" refY="5" viewBox="0 0 14 10" orient="auto" markerUnits="userSpaceOnUse" stroke-dasharray="0,0"><path id="SvgjsPath1087" d="M0,0 L14,5 L0,10 L0,0" fill="#323232" stroke="#323232" stroke-width="1"></path></marker><marker id="SvgjsMarker1090" markerWidth="14" markerHeight="10" refX="10" refY="5" viewBox="0 0 14 10" orient="auto" markerUnits="userSpaceOnUse" stroke-dasharray="0,0"><path id="SvgjsPath1091" d="M0,0 L14,5 L0,10 L0,0" fill="#323232" stroke="#323232" stroke-width="1"></path></marker><marker id="SvgjsMarker1115" markerWidth="14" markerHeight="10" refX="10" refY="5" viewBox="0 0 14 10" orient="auto" markerUnits="userSpaceOnUse" stroke-dasharray="0,0"><path id="SvgjsPath1116" d="M0,0 L14,5 L0,10 L0,0" fill="#323232" stroke="#323232" stroke-width="1"></path></marker><marker id="SvgjsMarker1127" markerWidth="14" markerHeight="10" refX="10" refY="5" viewBox="0 0 14 10" orient="auto" markerUnits="userSpaceOnUse" stroke-dasharray="0,0"><path id="SvgjsPath1128" d="M0,0 L14,5 L0,10 L0,0" fill="#323232" stroke="#323232" stroke-width="1"></path></marker><marker id="SvgjsMarker1139" markerWidth="14" markerHeight="10" refX="10" refY="5" viewBox="0 0 14 10" orient="auto" markerUnits="userSpaceOnUse" stroke-dasharray="0,0"><path id="SvgjsPath1140" d="M0,0 L14,5 L0,10 L0,0" fill="#323232" stroke="#323232" stroke-width="1"></path></marker><marker id="SvgjsMarker1143" markerWidth="14" markerHeight="10" refX="10" refY="5" viewBox="0 0 14 10" orient="auto" markerUnits="userSpaceOnUse" stroke-dasharray="0,0"><path id="SvgjsPath1144" d="M0,0 L14,5 L0,10 L0,0" fill="#323232" stroke="#323232" stroke-width="1"></path></marker><marker id="SvgjsMarker1168" markerWidth="14" markerHeight="10" refX="10" refY="5" viewBox="0 0 14 10" orient="auto" markerUnits="userSpaceOnUse" stroke-dasharray="0,0"><path id="SvgjsPath1169" d="M0,0 L14,5 L0,10 L0,0" fill="#323232" stroke="#323232" stroke-width="1"></path></marker><marker id="SvgjsMarker1193" markerWidth="14" markerHeight="10" refX="10" refY="5" viewBox="0 0 14 10" orient="auto" markerUnits="userSpaceOnUse" stroke-dasharray="0,0"><path id="SvgjsPath1194" d="M0,0 L14,5 L0,10 L0,0" fill="#323232" stroke="#323232" stroke-width="1"></path></marker></defs><g id="SvgjsG1008" transform="translate(25.012481689453125,25)"><path id="SvgjsPath1009" d="M 0 0L 986 0L 986 676L 0 676Z" stroke="none" fill-opacity="1" fill="#ffffff"></path><g id="SvgjsG1010"><text id="SvgjsText1011" font-family="微软雅黑" text-anchor="middle" font-size="13px" width="966px" fill="#323232" font-weight="400" align="middle" lineHeight="125%" anchor="middle" family="微软雅黑" size="13px" weight="400" font-style="" opacity="1" y="327.375" transform="rotate(0)"></text></g></g><g id="SvgjsG1012" transform="translate(566.0124816894531,31)"><path id="SvgjsPath1013" d="M 0 0L 436 0L 436 646.9999542236328L 0 646.9999542236328Z" stroke-dasharray="3,4" stroke="rgba(100,181,246,1)" stroke-width="2" fill-opacity="1" fill="#c8e6c9"></path><g id="SvgjsG1014"><text id="SvgjsText1015" font-family="微软雅黑" text-anchor="middle" font-size="13px" width="416px" fill="#323232" font-weight="700" align="top" lineHeight="125%" anchor="middle" family="微软雅黑" size="13px" weight="700" font-style="" opacity="1" y="-2.625" transform="rotate(0)"><tspan id="SvgjsTspan1016" dy="16" x="218"><tspan id="SvgjsTspan1017" style="text-decoration:;">限界上下文中的领域分层架构</tspan></tspan></text></g></g><g id="SvgjsG1018" transform="translate(34.012481689453125,252)"><path id="SvgjsPath1019" d="M 0 0L 496 0L 496 144L 0 144Z" stroke="none" fill-opacity="1" fill="#bbdefb"></path><g id="SvgjsG1020"><text id="SvgjsText1021" font-family="微软雅黑" text-anchor="middle" font-size="13px" width="476px" fill="#323232" font-weight="700" align="top" lineHeight="125%" anchor="middle" family="微软雅黑" size="13px" weight="700" font-style="" opacity="1" y="-2.625" transform="rotate(0)"><tspan id="SvgjsTspan1022" dy="16" x="248"><tspan id="SvgjsTspan1023" style="text-decoration:;">自定义开发的模块（示例：starter-example）</tspan></tspan></text></g></g><g id="SvgjsG1024" transform="translate(226.01248168945312,627)"><path id="SvgjsPath1025" d="M 0 4Q 0 0 4 0L 96 0Q 100 0 100 4L 100 66Q 100 70 96 70L 4 70Q 0 70 0 66Z" stroke="rgba(33,41,48,1)" stroke-width="2" fill-opacity="1" fill="#ffffff"></path><g id="SvgjsG1026"><text id="SvgjsText1027" font-family="微软雅黑" text-anchor="middle" font-size="13px" width="80px" fill="#323232" font-weight="400" align="middle" lineHeight="125%" anchor="middle" family="微软雅黑" size="13px" weight="400" font-style="" opacity="1" y="15.875" transform="rotate(0)"><tspan id="SvgjsTspan1028" dy="16" x="50"><tspan id="SvgjsTspan1029" style="text-decoration:;">global</tspan></tspan><tspan id="SvgjsTspan1030" dy="16" x="50"><tspan id="SvgjsTspan1031" style="text-decoration:;">通用工具</tspan></tspan></text></g></g><g id="SvgjsG1032" transform="translate(48.012481689453125,477)"><path id="SvgjsPath1033" d="M 0 4Q 0 0 4 0L 96 0Q 100 0 100 4L 100 66Q 100 70 96 70L 4 70Q 0 70 0 66Z" stroke="rgba(33,41,48,1)" stroke-width="2" fill-opacity="1" fill="#ffffff"></path><g id="SvgjsG1034"><text id="SvgjsText1035" font-family="微软雅黑" text-anchor="middle" font-size="13px" width="80px" fill="#323232" font-weight="400" align="middle" lineHeight="125%" anchor="middle" family="微软雅黑" size="13px" weight="400" font-style="" opacity="1" y="15.875" transform="rotate(0)"><tspan id="SvgjsTspan1036" dy="16" x="50"><tspan id="SvgjsTspan1037" style="text-decoration:;">core</tspan></tspan><tspan id="SvgjsTspan1038" dy="16" x="50"><tspan id="SvgjsTspan1039" style="text-decoration:;">基础框架核心</tspan></tspan></text></g></g><g id="SvgjsG1040" transform="translate(421.0124816894531,477)"><path id="SvgjsPath1041" d="M 0 4Q 0 0 4 0L 96 0Q 100 0 100 4L 100 66Q 100 70 96 70L 4 70Q 0 70 0 66Z" stroke="rgba(33,41,48,1)" stroke-width="2" fill-opacity="1" fill="#ffffff"></path><g id="SvgjsG1042"><text id="SvgjsText1043" font-family="微软雅黑" text-anchor="middle" font-size="13px" width="80px" fill="#323232" font-weight="400" align="middle" lineHeight="125%" anchor="middle" family="微软雅黑" size="13px" weight="400" font-style="" opacity="1" y="15.875" transform="rotate(0)"><tspan id="SvgjsTspan1044" dy="16" x="50"><tspan id="SvgjsTspan1045" style="text-decoration:;">share</tspan></tspan><tspan id="SvgjsTspan1046" dy="16" x="50"><tspan id="SvgjsTspan1047" style="text-decoration:;">公开插件</tspan></tspan></text></g></g><g id="SvgjsG1048"><path id="SvgjsPath1049" d="M96.2627388321408 547.6611461410657L223.31155597577754 659.6198738921632" stroke="#323232" stroke-width="2" fill="none" marker-end="url(#SvgjsMarker1050)"></path></g><g id="SvgjsG1052"><path id="SvgjsPath1053" d="M470.22898401036355 547.621394711002L328.8330733341754 659.7629790403927" stroke-dasharray="3,3" stroke="#212121" stroke-width="2" fill="none" marker-end="url(#SvgjsMarker1054)"></path></g><g id="SvgjsG1056" transform="translate(48.012481689453125,289)"><path id="SvgjsPath1057" d="M 0 4Q 0 0 4 0L 96 0Q 100 0 100 4L 100 66Q 100 70 96 70L 4 70Q 0 70 0 66Z" stroke="rgba(33,41,48,1)" stroke-width="2" fill-opacity="1" fill="#ffffff"></path><g id="SvgjsG1058"><text id="SvgjsText1059" font-family="微软雅黑" text-anchor="middle" font-size="13px" width="80px" fill="#323232" font-weight="400" align="middle" lineHeight="125%" anchor="middle" family="微软雅黑" size="13px" weight="400" font-style="" opacity="1" y="15.875" transform="rotate(0)"><tspan id="SvgjsTspan1060" dy="16" x="50"><tspan id="SvgjsTspan1061" style="text-decoration:;">starter/main</tspan></tspan><tspan id="SvgjsTspan1062" dy="16" x="50"><tspan id="SvgjsTspan1063" style="text-decoration:;">启动器</tspan></tspan></text></g></g><g id="SvgjsG1064"><path id="SvgjsPath1065" d="M97.99130000210371 359.9997756428925L95.58873576391102 473.4008076855871" stroke="#323232" stroke-width="2" fill="none" marker-end="url(#SvgjsMarker1066)"></path></g><g id="SvgjsG1068"><path id="SvgjsPath1069" d="M98.5657464938742 359.83300543586995L274.0207283935372 624.0011804308682" stroke="#323232" stroke-width="2" fill="none" marker-end="url(#SvgjsMarker1070)"></path></g><g id="SvgjsG1072" transform="translate(421.0124816894531,290.5)"><path id="SvgjsPath1073" d="M 0 4Q 0 0 4 0L 96 0Q 100 0 100 4L 100 66Q 100 70 96 70L 4 70Q 0 70 0 66Z" stroke="rgba(33,41,48,1)" stroke-width="2" fill-opacity="1" fill="#ffffff"></path><g id="SvgjsG1074"><text id="SvgjsText1075" font-family="微软雅黑" text-anchor="middle" font-size="13px" width="80px" fill="#323232" font-weight="400" align="middle" lineHeight="125%" anchor="middle" family="微软雅黑" size="13px" weight="400" font-style="" opacity="1" y="15.875" transform="rotate(0)"><tspan id="SvgjsTspan1076" dy="16" x="50"><tspan id="SvgjsTspan1077" style="text-decoration:;">starter/bc</tspan></tspan><tspan id="SvgjsTspan1078" dy="16" x="50"><tspan id="SvgjsTspan1079" style="text-decoration:;">限界上下文</tspan></tspan></text></g></g><g id="SvgjsG1080"><path id="SvgjsPath1081" d="M149.01248168945312 324L417.4124816894531 324" stroke="#323232" stroke-width="2" fill="none" marker-end="url(#SvgjsMarker1082)"></path></g><g id="SvgjsG1084"><path id="SvgjsPath1085" d="M470.4241306060576 359.8086055915385L278.13054558967707 624.0890198704615" stroke="#323232" stroke-width="2" fill="none" marker-end="url(#SvgjsMarker1086)"></path></g><g id="SvgjsG1088"><path id="SvgjsPath1089" d="M471.0124816894531 360L471.0124816894531 473.4" stroke="#323232" stroke-width="2" fill="none" marker-end="url(#SvgjsMarker1090)"></path></g><g id="SvgjsG1092" transform="translate(462.0124816894531,48.499999046325684)"><path id="SvgjsPath1093" d="M 95 0Q 86 0 86 9L 86 266.5000009536743Q 86 275.5000009536743 73 275.5000009536743Q 86 275.5000009536743 86 284.5000009536743L 86 542.0000019073486Q 86 551.0000019073486 95 551.0000019073486" stroke="rgba(33,41,48,1)" stroke-width="2" fill="none"></path><path id="SvgjsPath1094" d="M 0 0L 95 0L 95 551.0000019073486L 0 551.0000019073486Z" stroke="none" fill="none"></path><g id="SvgjsG1095"><text id="SvgjsText1096" font-family="微软雅黑" text-anchor="end" font-size="13px" width="68px" fill="#323232" font-weight="400" align="middle" lineHeight="125%" anchor="end" family="微软雅黑" size="13px" weight="400" font-style="" opacity="1" y="264.8750009536743" transform="rotate(0)"></text></g></g><g id="SvgjsG1097" transform="translate(576.0124816894531,40.5)"><path id="SvgjsPath1098" d="M 0 4Q 0 0 4 0L 96 0Q 100 0 100 4L 100 66Q 100 70 96 70L 4 70Q 0 70 0 66Z" stroke="rgba(33,41,48,1)" stroke-width="2" fill-opacity="1" fill="#ffffff"></path><g id="SvgjsG1099"><text id="SvgjsText1100" font-family="微软雅黑" text-anchor="middle" font-size="13px" width="80px" fill="#323232" font-weight="400" align="middle" lineHeight="125%" anchor="middle" family="微软雅黑" size="13px" weight="400" font-style="" opacity="1" y="15.875" transform="rotate(0)"><tspan id="SvgjsTspan1101" dy="16" x="50"><tspan id="SvgjsTspan1102" style="text-decoration:;">adapter</tspan></tspan><tspan id="SvgjsTspan1103" dy="16" x="50"><tspan id="SvgjsTspan1104" style="text-decoration:;">表现层适配器</tspan></tspan></text></g></g><g id="SvgjsG1105" transform="translate(576.0124816894531,171.50000190734863)"><path id="SvgjsPath1106" d="M 0 4Q 0 0 4 0L 96 0Q 100 0 100 4L 100 66Q 100 70 96 70L 4 70Q 0 70 0 66Z" stroke="rgba(33,41,48,1)" stroke-width="2" fill-opacity="1" fill="#ffffff"></path><g id="SvgjsG1107"><text id="SvgjsText1108" font-family="微软雅黑" text-anchor="middle" font-size="13px" width="80px" fill="#323232" font-weight="400" align="middle" lineHeight="125%" anchor="middle" family="微软雅黑" size="13px" weight="400" font-style="" opacity="1" y="15.875" transform="rotate(0)"><tspan id="SvgjsTspan1109" dy="16" x="50"><tspan id="SvgjsTspan1110" style="text-decoration:;">app</tspan></tspan><tspan id="SvgjsTspan1111" dy="16" x="50"><tspan id="SvgjsTspan1112" style="text-decoration:;">应用层</tspan></tspan></text></g></g><g id="SvgjsG1113"><path id="SvgjsPath1114" d="M626.0124816894531 111.5L626.0124816894531 167.90000190734864" stroke="#323232" stroke-width="2" fill="none" marker-end="url(#SvgjsMarker1115)"></path></g><g id="SvgjsG1117" transform="translate(701.0124816894531,290.4999990463257)"><path id="SvgjsPath1118" d="M 0 4Q 0 0 4 0L 96 0Q 100 0 100 4L 100 66Q 100 70 96 70L 4 70Q 0 70 0 66Z" stroke="rgba(33,41,48,1)" stroke-width="2" fill-opacity="1" fill="#ffffff"></path><g id="SvgjsG1119"><text id="SvgjsText1120" font-family="微软雅黑" text-anchor="middle" font-size="13px" width="80px" fill="#323232" font-weight="400" align="middle" lineHeight="125%" anchor="middle" family="微软雅黑" size="13px" weight="400" font-style="" opacity="1" y="15.875" transform="rotate(0)"><tspan id="SvgjsTspan1121" dy="16" x="50"><tspan id="SvgjsTspan1122" style="text-decoration:;">domain</tspan></tspan><tspan id="SvgjsTspan1123" dy="16" x="50"><tspan id="SvgjsTspan1124" style="text-decoration:;">领域层</tspan></tspan></text></g></g><g id="SvgjsG1125"><path id="SvgjsPath1126" d="M626.9435045221672 241.86496284356633L747.6607994916822 289.1861406296164" stroke="#323232" stroke-width="2" fill="none" marker-end="url(#SvgjsMarker1127)"></path></g><g id="SvgjsG1129" transform="translate(576.0124816894531,531)"><path id="SvgjsPath1130" d="M 0 4Q 0 0 4 0L 96 0Q 100 0 100 4L 100 66Q 100 70 96 70L 4 70Q 0 70 0 66Z" stroke="rgba(33,41,48,1)" stroke-width="2" fill-opacity="1" fill="#ffffff"></path><g id="SvgjsG1131"><text id="SvgjsText1132" font-family="微软雅黑" text-anchor="middle" font-size="13px" width="80px" fill="#323232" font-weight="400" align="middle" lineHeight="125%" anchor="middle" family="微软雅黑" size="13px" weight="400" font-style="" opacity="1" y="15.875" transform="rotate(0)"><tspan id="SvgjsTspan1133" dy="16" x="50"><tspan id="SvgjsTspan1134" style="text-decoration:;">infr</tspan></tspan><tspan id="SvgjsTspan1135" dy="16" x="50"><tspan id="SvgjsTspan1136" style="text-decoration:;">基础设施层</tspan></tspan></text></g></g><g id="SvgjsG1137"><path id="SvgjsPath1138" d="M626.0124816894531 242.50000190734863L626.0124816894531 527.4" stroke="#323232" stroke-width="2" fill="none" marker-end="url(#SvgjsMarker1139)"></path></g><g id="SvgjsG1141"><path id="SvgjsPath1142" d="M676.3553256225781 565.0606076232375L749.7782435302032 363.8818125563448" stroke="#323232" stroke-width="2" fill="none" marker-end="url(#SvgjsMarker1143)"></path></g><g id="SvgjsG1145" transform="translate(730.0124816894531,255)"><path id="SvgjsPath1146" d="M 100 0Q 91 0 91 9L 91 61Q 91 70 78 70Q 91 70 91 79L 91 131Q 91 140 100 140" stroke="rgba(33,41,48,1)" stroke-width="2" fill="none"></path><path id="SvgjsPath1147" d="M 0 0L 100 0L 100 140L 0 140Z" stroke="none" fill="none"></path><g id="SvgjsG1148"><text id="SvgjsText1149" font-family="微软雅黑" text-anchor="end" font-size="13px" width="73px" fill="#323232" font-weight="400" align="middle" lineHeight="125%" anchor="end" family="微软雅黑" size="13px" weight="400" font-style="" opacity="1" y="59.375" transform="rotate(0)"></text></g></g><g id="SvgjsG1150" transform="translate(846.0124816894531,345.7499990463257)"><path id="SvgjsPath1151" d="M 0 4Q 0 0 4 0L 96 0Q 100 0 100 4L 100 66Q 100 70 96 70L 4 70Q 0 70 0 66Z" stroke="rgba(33,41,48,1)" stroke-width="2" fill-opacity="1" fill="#ffffff"></path><g id="SvgjsG1152"><text id="SvgjsText1153" font-family="微软雅黑" text-anchor="middle" font-size="13px" width="80px" fill="#323232" font-weight="400" align="middle" lineHeight="125%" anchor="middle" family="微软雅黑" size="13px" weight="400" font-style="" opacity="1" y="15.875" transform="rotate(0)"><tspan id="SvgjsTspan1154" dy="16" x="50"><tspan id="SvgjsTspan1155" style="text-decoration:;">gateway</tspan></tspan><tspan id="SvgjsTspan1156" dy="16" x="50"><tspan id="SvgjsTspan1157" style="text-decoration:;">领域网关抽象</tspan></tspan></text></g></g><g id="SvgjsG1158" transform="translate(846.0124816894531,231)"><path id="SvgjsPath1159" d="M 0 4Q 0 0 4 0L 96 0Q 100 0 100 4L 100 66Q 100 70 96 70L 4 70Q 0 70 0 66Z" stroke="rgba(33,41,48,1)" stroke-width="2" fill-opacity="1" fill="#ffffff"></path><g id="SvgjsG1160"><text id="SvgjsText1161" font-family="微软雅黑" text-anchor="middle" font-size="13px" width="80px" fill="#323232" font-weight="400" align="middle" lineHeight="125%" anchor="middle" family="微软雅黑" size="13px" weight="400" font-style="" opacity="1" y="15.875" transform="rotate(0)"><tspan id="SvgjsTspan1162" dy="16" x="50"><tspan id="SvgjsTspan1163" style="text-decoration:;">do</tspan></tspan><tspan id="SvgjsTspan1164" dy="16" x="50"><tspan id="SvgjsTspan1165" style="text-decoration:;">领域模型</tspan></tspan></text></g></g><g id="SvgjsG1166"><path id="SvgjsPath1167" d="M896.0124816894531 344.7499990463257L896.0124816894531 304.6" stroke="#323232" stroke-width="2" fill="none" marker-end="url(#SvgjsMarker1168)"></path></g><g id="SvgjsG1170" transform="translate(614.0124816894531,507)"><path id="SvgjsPath1171" d="M 100 0Q 91 0 91 9L 91 61Q 91 70 78 70Q 91 70 91 79L 91 131Q 91 140 100 140" stroke="rgba(33,41,48,1)" stroke-width="2" fill="none"></path><path id="SvgjsPath1172" d="M 0 0L 100 0L 100 140L 0 140Z" stroke="none" fill="none"></path><g id="SvgjsG1173"><text id="SvgjsText1174" font-family="微软雅黑" text-anchor="end" font-size="13px" width="73px" fill="#323232" font-weight="400" align="middle" lineHeight="125%" anchor="end" family="微软雅黑" size="13px" weight="400" font-style="" opacity="1" y="59.375" transform="rotate(0)"></text></g></g><g id="SvgjsG1175" transform="translate(730.0124816894531,488)"><path id="SvgjsPath1176" d="M 0 4Q 0 0 4 0L 96 0Q 100 0 100 4L 100 66Q 100 70 96 70L 4 70Q 0 70 0 66Z" stroke="rgba(33,41,48,1)" stroke-width="2" fill-opacity="1" fill="#ffffff"></path><g id="SvgjsG1177"><text id="SvgjsText1178" font-family="微软雅黑" text-anchor="middle" font-size="13px" width="80px" fill="#323232" font-weight="400" align="middle" lineHeight="125%" anchor="middle" family="微软雅黑" size="13px" weight="400" font-style="" opacity="1" y="15.875" transform="rotate(0)"><tspan id="SvgjsTspan1179" dy="16" x="50"><tspan id="SvgjsTspan1180" style="text-decoration:;">gatewayimpl</tspan></tspan><tspan id="SvgjsTspan1181" dy="16" x="50"><tspan id="SvgjsTspan1182" style="text-decoration:;">网关(防腐层)</tspan></tspan></text></g></g><g id="SvgjsG1183" transform="translate(730.0124816894531,601)"><path id="SvgjsPath1184" d="M 0 4Q 0 0 4 0L 96 0Q 100 0 100 4L 100 66Q 100 70 96 70L 4 70Q 0 70 0 66Z" stroke="rgba(33,41,48,1)" stroke-width="2" fill-opacity="1" fill="#ffffff"></path><g id="SvgjsG1185"><text id="SvgjsText1186" font-family="微软雅黑" text-anchor="middle" font-size="13px" width="80px" fill="#323232" font-weight="400" align="middle" lineHeight="125%" anchor="middle" family="微软雅黑" size="13px" weight="400" font-style="" opacity="1" y="15.875" transform="rotate(0)"><tspan id="SvgjsTspan1187" dy="16" x="50"><tspan id="SvgjsTspan1188" style="text-decoration:;">repo</tspan></tspan><tspan id="SvgjsTspan1189" dy="16" x="50"><tspan id="SvgjsTspan1190" style="text-decoration:;">仓储层</tspan></tspan></text></g></g><g id="SvgjsG1191"><path id="SvgjsPath1192" d="M780.0124816894531 559L780.0124816894531 597.4" stroke="#323232" stroke-width="2" fill="none" marker-end="url(#SvgjsMarker1193)"></path></g></svg>