<svg id="SvgjsSvg1421" width="1060" height="1045" xmlns="http://www.w3.org/2000/svg" version="1.1" xmlns:xlink="http://www.w3.org/1999/xlink" xmlns:svgjs="http://svgjs.com/svgjs"><defs id="SvgjsDefs1422"><pattern id="SvgjsPattern1527" x="0" y="0" width="20.88281185759513" height="22.044442918565608" patternUnits="userSpaceOnUse"><image id="SvgjsImage1528" xlink:href="https://iconsapi.com/5ee982f1e4b01754b3cccaa9.svg" width="20.88281185759513" height="22.044442918565608" preserveAspectRatio="none" crossOrigin="anonymous" x="0" y="0"></image></pattern><pattern id="SvgjsPattern1531" x="0" y="0" width="20" height="20" patternUnits="userSpaceOnUse"><image id="SvgjsImage1532" xlink:href="https://iconsapi.com/5ee982c9e4b01754b3ccc9bd.svg" width="20" height="20" preserveAspectRatio="none" crossOrigin="anonymous" x="0" y="0"></image></pattern><pattern id="SvgjsPattern1543" x="0" y="0" width="20" height="20" patternUnits="userSpaceOnUse"><image id="SvgjsImage1544" xlink:href="https://iconsapi.com/5ee98300e4b01754b3cccb03.svg" width="20" height="20" preserveAspectRatio="none" crossOrigin="anonymous" x="0" y="0"></image></pattern><pattern id="SvgjsPattern1547" x="0" y="0" width="18.97281317216442" height="20" patternUnits="userSpaceOnUse"><image id="SvgjsImage1548" xlink:href="https://iconsapi.com/5ee982e0e4b01754b3ccca46.svg" width="18.97281317216442" height="20" preserveAspectRatio="none" crossOrigin="anonymous" x="0" y="0"></image></pattern></defs><g id="SvgjsG1423" transform="translate(25.012496948242188,24.99999713897705)"><path id="SvgjsPath1424" d="M 0 0L 1010.2000198364258 0L 1010.2000198364258 994.8000030517578L 0 994.8000030517578Z" stroke="none" fill-opacity="1" fill="#ffffff"></path><g id="SvgjsG1425"><text id="SvgjsText1426" font-family="微软雅黑" text-anchor="middle" font-size="13px" width="991px" fill="#323232" font-weight="400" align="middle" lineHeight="125%" anchor="middle" family="微软雅黑" size="13px" weight="400" font-style="" opacity="1" y="486.7750015258789" transform="rotate(0)"></text></g></g><g id="SvgjsG1427" transform="translate(152.7943247014831,500.2662264576413)"><path id="SvgjsPath1428" d="M 0 4Q 0 0 4 0L 861.218187505548 0Q 865.218187505548 0 865.218187505548 4L 865.218187505548 136.9999942779541Q 865.218187505548 140.9999942779541 861.218187505548 140.9999942779541L 4 140.9999942779541Q 0 140.9999942779541 0 136.9999942779541Z" stroke-dasharray="3,4" stroke="rgba(33,41,48,1)" stroke-width="2" fill-opacity="1" fill="#fff9c4"></path><g id="SvgjsG1429"><text id="SvgjsText1430" font-family="微软雅黑" text-anchor="middle" font-size="13px" width="846px" fill="#323232" font-weight="400" align="top" lineHeight="125%" anchor="middle" family="微软雅黑" size="13px" weight="400" font-style="" opacity="1" y="-2.625" transform="rotate(0)"><tspan id="SvgjsTspan1431" dy="16" x="433"><tspan id="SvgjsTspan1432" style="text-decoration:;">基础能力服务</tspan></tspan></text></g></g><g id="SvgjsG1433" transform="translate(152.7943247014831,777.8807377181088)"><path id="SvgjsPath1434" d="M 0 4Q 0 0 4 0L 861.2181875055483 0Q 865.2181875055483 0 865.2181875055483 4L 865.2181875055483 221.0182036993342Q 865.2181875055483 225.0182036993342 861.2181875055483 225.0182036993342L 4 225.0182036993342Q 0 225.0182036993342 0 221.0182036993342Z" stroke-dasharray="3,4" stroke="rgba(33,41,48,1)" stroke-width="2" fill-opacity="1" fill="#e1bee7"></path><g id="SvgjsG1435"><text id="SvgjsText1436" font-family="微软雅黑" text-anchor="middle" font-size="13px" width="846px" fill="#323232" font-weight="400" align="top" lineHeight="125%" anchor="middle" family="微软雅黑" size="13px" weight="400" font-style="" opacity="1" y="-2.625" transform="rotate(0)"><tspan id="SvgjsTspan1437" dy="16" x="433"><tspan id="SvgjsTspan1438" style="text-decoration:;">基础设施</tspan></tspan></text></g></g><g id="SvgjsG1439" transform="translate(152.7943247014831,274.85652067824003)"><path id="SvgjsPath1440" d="M 0 4Q 0 0 4 0L 861.2181875055483 0Q 865.2181875055483 0 865.2181875055483 4L 865.2181875055483 206.52896520026962Q 865.2181875055483 210.52896520026962 861.2181875055483 210.52896520026962L 4 210.52896520026962Q 0 210.52896520026962 0 206.52896520026962Z" stroke-dasharray="3,4" stroke="rgba(33,41,48,1)" stroke-width="2" fill-opacity="1" fill="#c8e6c9"></path><g id="SvgjsG1441"><text id="SvgjsText1442" font-family="微软雅黑" text-anchor="middle" font-size="13px" width="846px" fill="#323232" font-weight="400" align="top" lineHeight="125%" anchor="middle" family="微软雅黑" size="13px" weight="400" font-style="" opacity="1" y="-2.625" transform="rotate(0)"><tspan id="SvgjsTspan1443" dy="16" x="433"><tspan id="SvgjsTspan1444" style="text-decoration:;">业务聚合服务</tspan></tspan></text></g></g><g id="SvgjsG1445" transform="translate(678.104704979894,800.3840298106245)"><path id="SvgjsPath1446" d="M 0 4Q 0 0 4 0L 319.00454142410035 0Q 323.00454142410035 0 323.00454142410035 4L 323.00454142410035 185.3176858222264Q 323.00454142410035 189.3176858222264 319.00454142410035 189.3176858222264L 4 189.3176858222264Q 0 189.3176858222264 0 185.3176858222264Z" stroke-dasharray="10,6,3,6" stroke="rgba(33,41,48,1)" stroke-width="1" fill-opacity="1" fill="#ffffff"></path><g id="SvgjsG1447"><text id="SvgjsText1448" font-family="微软雅黑" text-anchor="middle" font-size="13px" width="304px" fill="#323232" font-weight="400" align="top" lineHeight="125%" anchor="middle" family="微软雅黑" size="13px" weight="400" font-style="" opacity="1" y="-2.625" transform="rotate(0)"><tspan id="SvgjsTspan1449" dy="16" x="162"><tspan id="SvgjsTspan1450" style="text-decoration:;">其他基础设施</tspan></tspan></text></g></g><g id="SvgjsG1451" transform="translate(169.69759050452024,800.2698532688387)"><path id="SvgjsPath1452" d="M 0 4Q 0 0 4 0L 281.94891079282826 0Q 285.94891079282826 0 285.94891079282826 4L 285.94891079282826 185.546038905798Q 285.94891079282826 189.546038905798 281.94891079282826 189.546038905798L 4 189.546038905798Q 0 189.546038905798 0 185.546038905798Z" stroke-dasharray="10,6,3,6" stroke="rgba(33,41,48,1)" stroke-width="1" fill-opacity="1" fill="#ffffff"></path><g id="SvgjsG1453"><text id="SvgjsText1454" font-family="微软雅黑" text-anchor="middle" font-size="13px" width="266px" fill="#323232" font-weight="400" align="top" lineHeight="125%" anchor="middle" family="微软雅黑" size="13px" weight="400" font-style="" opacity="1" y="-2.625" transform="rotate(0)"><tspan id="SvgjsTspan1455" dy="16" x="143"><tspan id="SvgjsTspan1456" style="text-decoration:;">服务治理相关</tspan></tspan></text></g></g><g id="SvgjsG1457" transform="translate(183.62669681919112,822.8456347030908)"><path id="SvgjsPath1458" d="M 0 4Q 0 0 4 0L 65.3230796744806 0Q 69.3230796744806 0 69.3230796744806 4L 69.3230796744806 145.04585010040933Q 69.3230796744806 149.04585010040933 65.3230796744806 149.04585010040933L 4 149.04585010040933Q 0 149.04585010040933 0 145.04585010040933Z" stroke="rgba(33,41,48,1)" stroke-width="1" fill-opacity="1" fill="#ffcdd2"></path><g id="SvgjsG1459"><text id="SvgjsText1460" font-family="微软雅黑" text-anchor="middle" font-size="13px" width="50px" fill="#323232" font-weight="400" align="middle" lineHeight="125%" anchor="middle" family="微软雅黑" size="13px" weight="400" font-style="" opacity="1" y="31.397925050204663" transform="rotate(0)"><tspan id="SvgjsTspan1461" dy="16" x="35"><tspan id="SvgjsTspan1462" style="text-decoration:;">consul</tspan></tspan><tspan id="SvgjsTspan1463" dy="16" x="35"><tspan id="SvgjsTspan1464" style="text-decoration:;">注册中</tspan></tspan><tspan id="SvgjsTspan1465" dy="16" x="35"><tspan id="SvgjsTspan1466" style="text-decoration:;">心</tspan></tspan><tspan id="SvgjsTspan1467" dy="16" x="35"><tspan id="SvgjsTspan1468" style="text-decoration:;">配置中</tspan></tspan><tspan id="SvgjsTspan1469" dy="16" x="35"><tspan id="SvgjsTspan1470" style="text-decoration:;">心</tspan></tspan></text></g></g><g id="SvgjsG1471" transform="translate(260.56487093175076,819.3918155672491)"><path id="SvgjsPath1472" d="M 0 4Q 0 0 4 0L 71.56403318054436 0Q 75.56403318054436 0 75.56403318054436 4L 75.56403318054436 98Q 75.56403318054436 102 71.56403318054436 102L 4 102Q 0 102 0 98Z" stroke="rgba(33,41,48,1)" stroke-width="1" fill-opacity="1" fill="#b2ebf2"></path><g id="SvgjsG1473"><text id="SvgjsText1474" font-family="微软雅黑" text-anchor="middle" font-size="13px" width="56px" fill="#323232" font-weight="400" align="middle" lineHeight="125%" anchor="middle" family="微软雅黑" size="13px" weight="400" font-style="" opacity="1" y="31.875" transform="rotate(0)"><tspan id="SvgjsTspan1475" dy="16" x="38"><tspan id="SvgjsTspan1476" style="text-decoration:;">jaeger</tspan></tspan><tspan id="SvgjsTspan1477" dy="16" x="38"><tspan id="SvgjsTspan1478" style="text-decoration:;">链路追踪</tspan></tspan></text></g></g><g id="SvgjsG1479" transform="translate(260.56487093175076,929.6476295207374)"><path id="SvgjsPath1480" d="M 0 4Q 0 0 4 0L 176.29524624896158 0Q 180.29524624896158 0 180.29524624896158 4L 180.29524624896158 35.39534883720922Q 180.29524624896158 39.39534883720922 176.29524624896158 39.39534883720922L 4 39.39534883720922Q 0 39.39534883720922 0 35.39534883720922Z" stroke="rgba(33,41,48,1)" stroke-width="1" fill-opacity="1" fill="#c8e6c9"></path><g id="SvgjsG1481"><text id="SvgjsText1482" font-family="微软雅黑" text-anchor="middle" font-size="13px" width="161px" fill="#323232" font-weight="400" align="middle" lineHeight="125%" anchor="middle" family="微软雅黑" size="13px" weight="400" font-style="" opacity="1" y="0.5726744186046098" transform="rotate(0)"><tspan id="SvgjsTspan1483" dy="16" x="90.5"><tspan id="SvgjsTspan1484" style="text-decoration:;">opentelemetry-collector</tspan></tspan><tspan id="SvgjsTspan1485" dy="16" x="90.5"><tspan id="SvgjsTspan1486" style="text-decoration:;">遥测代理服务</tspan></tspan></text></g></g><g id="SvgjsG1487" transform="translate(343.74399855037416,873.3453039393421)"><path id="SvgjsPath1488" d="M 0 4Q 0 0 4 0L 93.06055334402683 0Q 97.06055334402683 0 97.06055334402683 4L 97.06055334402683 44.04651162790695Q 97.06055334402683 48.04651162790695 93.06055334402683 48.04651162790695L 4 48.04651162790695Q 0 48.04651162790695 0 44.04651162790695Z" stroke="rgba(33,41,48,1)" stroke-width="1" fill-opacity="1" fill="#e1bee7"></path><g id="SvgjsG1489"><text id="SvgjsText1490" font-family="微软雅黑" text-anchor="middle" font-size="13px" width="78px" fill="#323232" font-weight="400" align="middle" lineHeight="125%" anchor="middle" family="微软雅黑" size="13px" weight="400" font-style="" opacity="1" y="4.898255813953476" transform="rotate(0)"><tspan id="SvgjsTspan1491" dy="16" x="49"><tspan id="SvgjsTspan1492" style="text-decoration:;">prometheus</tspan></tspan><tspan id="SvgjsTspan1493" dy="16" x="49"><tspan id="SvgjsTspan1494" style="text-decoration:;">指标收集</tspan></tspan></text></g></g><g id="SvgjsG1495" transform="translate(470.6419598732482,800.3840298106245)"><path id="SvgjsPath1496" d="M 0 4Q 0 0 4 0L 188.46728653074615 0Q 192.46728653074615 0 192.46728653074615 4L 192.46728653074615 185.3176858222264Q 192.46728653074615 189.3176858222264 188.46728653074615 189.3176858222264L 4 189.3176858222264Q 0 189.3176858222264 0 185.3176858222264Z" stroke-dasharray="10,6,3,6" stroke="rgba(33,41,48,1)" stroke-width="1" fill-opacity="1" fill="#ffffff"></path><g id="SvgjsG1497"><text id="SvgjsText1498" font-family="微软雅黑" text-anchor="middle" font-size="13px" width="173px" fill="#323232" font-weight="400" align="top" lineHeight="125%" anchor="middle" family="微软雅黑" size="13px" weight="400" font-style="" opacity="1" y="-2.625" transform="rotate(0)"><tspan id="SvgjsTspan1499" dy="16" x="96.5"><tspan id="SvgjsTspan1500" style="text-decoration:;">日志治理相关</tspan></tspan></text></g></g><g id="SvgjsG1501" transform="translate(480.07108471274057,930.8975775885945)"><path id="SvgjsPath1502" d="M 0 4Q 0 0 4 0L 170.1307718301869 0Q 174.1307718301869 0 174.1307718301869 4L 174.1307718301869 35.395348837208076Q 174.1307718301869 39.395348837208076 170.1307718301869 39.395348837208076L 4 39.395348837208076Q 0 39.395348837208076 0 35.395348837208076Z" stroke="rgba(33,41,48,1)" stroke-width="1" fill-opacity="1" fill="#ffe0b2"></path><g id="SvgjsG1503"><text id="SvgjsText1504" font-family="微软雅黑" text-anchor="middle" font-size="13px" width="155px" fill="#323232" font-weight="400" align="middle" lineHeight="125%" anchor="middle" family="微软雅黑" size="13px" weight="400" font-style="" opacity="1" y="0.5726744186040378" transform="rotate(0)"><tspan id="SvgjsTspan1505" dy="16" x="87.5"><tspan id="SvgjsTspan1506" style="text-decoration:;">filebeat</tspan></tspan><tspan id="SvgjsTspan1507" dy="16" x="87.5"><tspan id="SvgjsTspan1508" style="text-decoration:;">日志文件扫描器</tspan></tspan></text></g></g><g id="SvgjsG1509" transform="translate(480.07108471274046,872.5498037718228)"><path id="SvgjsPath1510" d="M 0 4Q 0 0 4 0L 170.13077183018717 0Q 174.13077183018717 0 174.13077183018717 4L 174.13077183018717 46.220501470968884Q 174.13077183018717 50.220501470968884 170.13077183018717 50.220501470968884L 4 50.220501470968884Q 0 50.220501470968884 0 46.220501470968884Z" stroke="rgba(33,41,48,1)" stroke-width="1" fill-opacity="1" fill="#bbdefb"></path><g id="SvgjsG1511"><text id="SvgjsText1512" font-family="微软雅黑" text-anchor="middle" font-size="13px" width="155px" fill="#323232" font-weight="400" align="middle" lineHeight="125%" anchor="middle" family="微软雅黑" size="13px" weight="400" font-style="" opacity="1" y="5.985250735484442" transform="rotate(0)"><tspan id="SvgjsTspan1513" dy="16" x="87.5"><tspan id="SvgjsTspan1514" style="text-decoration:;">elasticsearch</tspan></tspan><tspan id="SvgjsTspan1515" dy="16" x="87.5"><tspan id="SvgjsTspan1516" style="text-decoration:;">日志数据库</tspan></tspan></text></g></g><g id="SvgjsG1517" transform="translate(343.7995638366855,819.3918155672491)"><path id="SvgjsPath1518" d="M 0 4Q 0 0 4 0L 93.06055334402683 0Q 97.06055334402683 0 97.06055334402683 4L 97.06055334402683 44.04651162790695Q 97.06055334402683 48.04651162790695 93.06055334402683 48.04651162790695L 4 48.04651162790695Q 0 48.04651162790695 0 44.04651162790695Z" stroke="rgba(33,41,48,1)" stroke-width="1" fill-opacity="1" fill="#e0e0e0"></path><g id="SvgjsG1519"><text id="SvgjsText1520" font-family="微软雅黑" text-anchor="middle" font-size="13px" width="78px" fill="#000000" font-weight="400" align="middle" lineHeight="125%" anchor="middle" family="微软雅黑" size="13px" weight="400" font-style="" opacity="1" y="4.898255813953476" transform="rotate(0)"><tspan id="SvgjsTspan1521" dy="16" x="49"><tspan id="SvgjsTspan1522" style="text-decoration:;">grafana</tspan></tspan><tspan id="SvgjsTspan1523" dy="16" x="49"><tspan id="SvgjsTspan1524" style="text-decoration:;">视图面板</tspan></tspan></text></g></g><g id="SvgjsG1525" transform="translate(347.3420523265289,828.6341943541104)"><path id="SvgjsPath1526" d="M 0 0L 20.88281185759513 0L 20.88281185759513 22.044442918565608L 0 22.044442918565608Z" stroke="none" fill="url(#SvgjsPattern1527)"></path></g><g id="SvgjsG1529" transform="translate(488.0036384265302,940.5952520071985)"><path id="SvgjsPath1530" d="M 0 0L 20 0L 20 20L 0 20Z" stroke="none" fill="url(#SvgjsPattern1531)"></path></g><g id="SvgjsG1533" transform="translate(480.07108471274046,820.5494019067901)"><path id="SvgjsPath1534" d="M 0 4Q 0 0 4 0L 170.13077183018717 0Q 174.13077183018717 0 174.13077183018717 4L 174.13077183018717 39.220903336001584Q 174.13077183018717 43.220903336001584 170.13077183018717 43.220903336001584L 4 43.220903336001584Q 0 43.220903336001584 0 39.220903336001584Z" stroke="rgba(33,41,48,1)" stroke-width="1" fill-opacity="1" fill="#c8e6c9"></path><g id="SvgjsG1535"><text id="SvgjsText1536" font-family="微软雅黑" text-anchor="middle" font-size="13px" width="155px" fill="#323232" font-weight="400" align="middle" lineHeight="125%" anchor="middle" family="微软雅黑" size="13px" weight="400" font-style="" opacity="1" y="2.485451668000792" transform="rotate(0)"><tspan id="SvgjsTspan1537" dy="16" x="87.5"><tspan id="SvgjsTspan1538" style="text-decoration:;">kibana</tspan></tspan><tspan id="SvgjsTspan1539" dy="16" x="87.5"><tspan id="SvgjsTspan1540" style="text-decoration:;">数据分析视图面板</tspan></tspan></text></g></g><g id="SvgjsG1541" transform="translate(488.97087167622954,829.5494019067905)"><path id="SvgjsPath1542" d="M 0 0L 20 0L 20 20L 0 20Z" stroke="none" fill="url(#SvgjsPattern1543)"></path></g><g id="SvgjsG1545" transform="translate(489.99805850406506,882.2474781904273)"><path id="SvgjsPath1546" d="M 0 0L 18.97281317216442 0L 18.97281317216442 20L 0 20Z" stroke="none" fill="url(#SvgjsPattern1547)"></path></g><g id="SvgjsG1549" transform="translate(690.795966315574,823.8416344077625)"><path id="SvgjsPath1550" d="M 0 4Q 0 0 4 0L 137.7012288690332 0Q 141.7012288690332 0 141.7012288690332 4L 141.7012288690332 57.158787812773696Q 141.7012288690332 61.158787812773696 137.7012288690332 61.158787812773696L 4 61.158787812773696Q 0 61.158787812773696 0 57.158787812773696Z" stroke="rgba(33,41,48,1)" stroke-width="1" fill-opacity="1" fill="#b2ebf2"></path><g id="SvgjsG1551"><text id="SvgjsText1552" font-family="微软雅黑" text-anchor="middle" font-size="13px" width="122px" fill="#323232" font-weight="400" align="middle" lineHeight="125%" anchor="middle" family="微软雅黑" size="13px" weight="400" font-style="" opacity="1" y="11.454393906386848" transform="rotate(0)"><tspan id="SvgjsTspan1553" dy="16" x="71"><tspan id="SvgjsTspan1554" style="text-decoration:;">PostgreSQL</tspan></tspan><tspan id="SvgjsTspan1555" dy="16" x="71"><tspan id="SvgjsTspan1556" style="text-decoration:;">关系数据库</tspan></tspan></text></g></g><g id="SvgjsG1557" transform="translate(796.7422043768329,902.2474781904273)"><path id="SvgjsPath1558" d="M 0 4Q 0 0 4 0L 78.99488345484951 0Q 82.99488345484951 0 82.99488345484951 4L 82.99488345484951 57.158787812773696Q 82.99488345484951 61.158787812773696 78.99488345484951 61.158787812773696L 4 61.158787812773696Q 0 61.158787812773696 0 57.158787812773696Z" stroke="rgba(33,41,48,1)" stroke-width="1" fill-opacity="1" fill="#e57373"></path><g id="SvgjsG1559"><text id="SvgjsText1560" font-family="微软雅黑" text-anchor="middle" font-size="13px" width="63px" fill="#323232" font-weight="400" align="middle" lineHeight="125%" anchor="middle" family="微软雅黑" size="13px" weight="400" font-style="" opacity="1" y="11.454393906386848" transform="rotate(0)"><tspan id="SvgjsTspan1561" dy="16" x="41.5"><tspan id="SvgjsTspan1562" style="text-decoration:;">redis</tspan></tspan><tspan id="SvgjsTspan1563" dy="16" x="41.5"><tspan id="SvgjsTspan1564" style="text-decoration:;">缓存</tspan></tspan></text></g></g><g id="SvgjsG1565" transform="translate(690.795966315574,902.2474781904273)"><path id="SvgjsPath1566" d="M 0 4Q 0 0 4 0L 89.56896294379624 0Q 93.56896294379624 0 93.56896294379624 4L 93.56896294379624 57.158787812773696Q 93.56896294379624 61.158787812773696 89.56896294379624 61.158787812773696L 4 61.158787812773696Q 0 61.158787812773696 0 57.158787812773696Z" stroke="rgba(33,41,48,1)" stroke-width="1" fill-opacity="1" fill="#c8e6c9"></path><g id="SvgjsG1567"><text id="SvgjsText1568" font-family="微软雅黑" text-anchor="middle" font-size="13px" width="74px" fill="#323232" font-weight="400" align="middle" lineHeight="125%" anchor="middle" family="微软雅黑" size="13px" weight="400" font-style="" opacity="1" y="11.454393906386848" transform="rotate(0)"><tspan id="SvgjsTspan1569" dy="16" x="47"><tspan id="SvgjsTspan1570" style="text-decoration:;">NSQ</tspan></tspan><tspan id="SvgjsTspan1571" dy="16" x="47"><tspan id="SvgjsTspan1572" style="text-decoration:;">消息队列</tspan></tspan></text></g></g><g id="SvgjsG1573" transform="translate(165.06639003934526,522.2662264576413)"><path id="SvgjsPath1574" d="M 0 4Q 0 0 4 0L 102.44369323417231 0Q 106.44369323417231 0 106.44369323417231 4L 106.44369323417231 103Q 106.44369323417231 107 102.44369323417231 107L 4 107Q 0 107 0 103Z" stroke="rgba(33,41,48,1)" stroke-width="1" fill-opacity="1" fill="#ffffff"></path><g id="SvgjsG1575"><text id="SvgjsText1576" font-family="微软雅黑" text-anchor="middle" font-size="13px" width="87px" fill="#323232" font-weight="400" align="middle" lineHeight="125%" anchor="middle" family="微软雅黑" size="13px" weight="400" font-style="" opacity="1" y="10.375" transform="rotate(0)"><tspan id="SvgjsTspan1577" dy="16" x="53.5"><tspan id="SvgjsTspan1578" style="text-decoration:;">starter-auth权</tspan></tspan><tspan id="SvgjsTspan1579" dy="16" x="53.5"><tspan id="SvgjsTspan1580" style="text-decoration:;">限服务</tspan></tspan><tspan id="SvgjsTspan1581" dy="16" x="53.5"><tspan id="SvgjsTspan1582" style="text-decoration:;"> </tspan></tspan><tspan id="SvgjsTspan1583" dy="16" x="53.5"><tspan id="SvgjsTspan1584" style="text-decoration:;">涉及：</tspan></tspan><tspan id="SvgjsTspan1585" dy="16" x="53.5"><tspan id="SvgjsTspan1586" style="text-decoration:;">租户/RBAC</tspan></tspan></text></g></g><g id="SvgjsG1587" transform="translate(167.11287796792226,298.02131450121436)"><path id="SvgjsPath1588" d="M 0 4Q 0 0 4 0L 117.31518376505096 0Q 121.31518376505096 0 121.31518376505096 4L 121.31518376505096 163.02359764594752Q 121.31518376505096 167.02359764594752 117.31518376505096 167.02359764594752L 4 167.02359764594752Q 0 167.02359764594752 0 163.02359764594752Z" stroke="rgba(33,41,48,1)" stroke-width="1" fill-opacity="1" fill="#ffffff"></path><g id="SvgjsG1589"><text id="SvgjsText1590" font-family="微软雅黑" text-anchor="middle" font-size="13px" width="102px" fill="#323232" font-weight="400" align="middle" lineHeight="125%" anchor="middle" family="微软雅黑" size="13px" weight="400" font-style="" opacity="1" y="23.88679882297376" transform="rotate(0)"><tspan id="SvgjsTspan1591" dy="16" x="61"><tspan id="SvgjsTspan1592" style="text-decoration:;">starter-openapi</tspan></tspan><tspan id="SvgjsTspan1593" dy="16" x="61"><tspan id="SvgjsTspan1594" style="text-decoration:;">租户业务服务</tspan></tspan><tspan id="SvgjsTspan1595" dy="16" x="61"><tspan id="SvgjsTspan1596" style="text-decoration:;"> </tspan></tspan><tspan id="SvgjsTspan1597" dy="16" x="61"><tspan id="SvgjsTspan1598" style="text-decoration:;">涉及：</tspan></tspan><tspan id="SvgjsTspan1599" dy="16" x="61"><tspan id="SvgjsTspan1600" style="text-decoration:;">租户开通/API管</tspan></tspan><tspan id="SvgjsTspan1601" dy="16" x="61"><tspan id="SvgjsTspan1602" style="text-decoration:;">理/充值/</tspan><tspan id="SvgjsTspan1603" style="text-decoration:;font-size: inherit;">计费等</tspan></tspan><tspan id="SvgjsTspan1604" dy="16" x="61"><tspan id="SvgjsTspan1605" style="text-decoration:;font-size: inherit;">等</tspan></tspan></text></g></g><g id="SvgjsG1606" transform="translate(152.79432470148288,123.24517597571406)"><path id="SvgjsPath1607" d="M 0 4Q 0 0 4 0L 861.2181875055485 0Q 865.2181875055485 0 865.2181875055485 4L 865.2181875055485 70.27408765866079Q 865.2181875055485 74.27408765866079 861.2181875055485 74.27408765866079L 4 74.27408765866079Q 0 74.27408765866079 0 70.27408765866079Z" stroke-dasharray="3,4" stroke="rgba(33,41,48,1)" stroke-width="2" fill-opacity="1" fill="#ffe0b2"></path><g id="SvgjsG1608"><text id="SvgjsText1609" font-family="微软雅黑" text-anchor="middle" font-size="13px" width="846px" fill="#323232" font-weight="400" align="top" lineHeight="125%" anchor="middle" family="微软雅黑" size="13px" weight="400" font-style="" opacity="1" y="-2.625" transform="rotate(0)"><tspan id="SvgjsTspan1610" dy="16" x="433"><tspan id="SvgjsTspan1611" style="text-decoration:;">接入应用</tspan></tspan></text></g></g><g id="SvgjsG1612" transform="translate(167.11287796792226,139.2674728730559)"><path id="SvgjsPath1613" d="M 0 4Q 0 0 4 0L 112.31101754395937 0Q 116.31101754395937 0 116.31101754395937 4L 116.31101754395937 43.21615205609399Q 116.31101754395937 47.21615205609399 112.31101754395937 47.21615205609399L 4 47.21615205609399Q 0 47.21615205609399 0 43.21615205609399Z" stroke="rgba(33,41,48,1)" stroke-width="1" fill-opacity="1" fill="#ffffff"></path><g id="SvgjsG1614"><text id="SvgjsText1615" font-family="微软雅黑" text-anchor="middle" font-size="13px" width="97px" fill="#323232" font-weight="400" align="middle" lineHeight="125%" anchor="middle" family="微软雅黑" size="13px" weight="400" font-style="" opacity="1" y="12.983076028046995" transform="rotate(0)"><tspan id="SvgjsTspan1616" dy="16" x="58.5"><tspan id="SvgjsTspan1617" style="text-decoration:;">租户开放平台</tspan></tspan></text></g></g><g id="SvgjsG1618" transform="translate(298.1112574154597,139.26747287305585)"><path id="SvgjsPath1619" d="M 0 4Q 0 0 4 0L 115.34440167973344 0Q 119.34440167973344 0 119.34440167973344 4L 119.34440167973344 43.21615205609399Q 119.34440167973344 47.21615205609399 115.34440167973344 47.21615205609399L 4 47.21615205609399Q 0 47.21615205609399 0 43.21615205609399Z" stroke="rgba(33,41,48,1)" stroke-width="1" fill-opacity="1" fill="#ffffff"></path><g id="SvgjsG1620"><text id="SvgjsText1621" font-family="微软雅黑" text-anchor="middle" font-size="13px" width="100px" fill="#323232" font-weight="400" align="middle" lineHeight="125%" anchor="middle" family="微软雅黑" size="13px" weight="400" font-style="" opacity="1" y="12.983076028046995" transform="rotate(0)"><tspan id="SvgjsTspan1622" dy="16" x="60"><tspan id="SvgjsTspan1623" style="text-decoration:;">直播平台</tspan></tspan></text></g></g><g id="SvgjsG1624" transform="translate(152.794324701483,208.24517597571406)"><path id="SvgjsPath1625" d="M 0 4Q 0 0 4 0L 861.2181875055484 0Q 865.2181875055484 0 865.2181875055484 4L 865.2181875055484 50.55482421502086Q 865.2181875055484 54.55482421502086 861.2181875055484 54.55482421502086L 4 54.55482421502086Q 0 54.55482421502086 0 50.55482421502086Z" stroke="rgba(33,41,48,1)" stroke-width="1" fill-opacity="1" fill="#bbdefb"></path><g id="SvgjsG1626"><text id="SvgjsText1627" font-family="微软雅黑" text-anchor="middle" font-size="13px" width="846px" fill="#323232" font-weight="400" align="middle" lineHeight="125%" anchor="middle" family="微软雅黑" size="13px" weight="400" font-style="" opacity="1" y="16.65241210751043" transform="rotate(0)"><tspan id="SvgjsTspan1628" dy="16" x="433"><tspan id="SvgjsTspan1629" style="text-decoration:;">API网关</tspan></tspan></text></g></g><g id="SvgjsG1630" transform="translate(844.7959663155739,823.8416344077625)"><path id="SvgjsPath1631" d="M 0 4Q 0 0 4 0L 126.31328008842047 0Q 130.31328008842047 0 130.31328008842047 4L 130.31328008842047 57.15878781277376Q 130.31328008842047 61.15878781277376 126.31328008842047 61.15878781277376L 4 61.15878781277376Q 0 61.15878781277376 0 57.15878781277376Z" stroke="rgba(33,41,48,1)" stroke-width="1" fill-opacity="1" fill="#fadded"></path><g id="SvgjsG1632"><text id="SvgjsText1633" font-family="微软雅黑" text-anchor="middle" font-size="13px" width="111px" fill="#323232" font-weight="400" align="middle" lineHeight="125%" anchor="middle" family="微软雅黑" size="13px" weight="400" font-style="" opacity="1" y="11.45439390638688" transform="rotate(0)"><tspan id="SvgjsTspan1634" dy="16" x="65.5"><tspan id="SvgjsTspan1635" style="text-decoration:;">livego</tspan></tspan><tspan id="SvgjsTspan1636" dy="16" x="65.5"><tspan id="SvgjsTspan1637" style="text-decoration:;">直播流处理服务</tspan></tspan></text></g></g><g id="SvgjsG1638" transform="translate(433.0790237703418,522.2662264576413)"><path id="SvgjsPath1639" d="M 0 4Q 0 0 4 0L 133.54482051001264 0Q 137.54482051001264 0 137.54482051001264 4L 137.54482051001264 102.99999999999997Q 137.54482051001264 106.99999999999997 133.54482051001264 106.99999999999997L 4 106.99999999999997Q 0 106.99999999999997 0 102.99999999999997Z" stroke="rgba(33,41,48,1)" stroke-width="1" fill-opacity="1" fill="#ffffff"></path><g id="SvgjsG1640"><text id="SvgjsText1641" font-family="微软雅黑" text-anchor="middle" font-size="13px" width="118px" fill="#323232" font-weight="400" align="middle" lineHeight="125%" anchor="middle" family="微软雅黑" size="13px" weight="400" font-style="" opacity="1" y="1.8749999999999858" transform="rotate(0)"><tspan id="SvgjsTspan1642" dy="16" x="69"><tspan id="SvgjsTspan1643" style="text-decoration:;">starter-review</tspan></tspan><tspan id="SvgjsTspan1644" dy="16" x="69"><tspan id="SvgjsTspan1645" style="text-decoration:;">内容审核服务</tspan></tspan><tspan id="SvgjsTspan1646" dy="16" x="69"><tspan id="SvgjsTspan1647" style="text-decoration:;">涉及：</tspan></tspan><tspan id="SvgjsTspan1648" dy="16" x="69"><tspan id="SvgjsTspan1649" style="text-decoration:;">敏感词/广告/情感倾</tspan></tspan><tspan id="SvgjsTspan1650" dy="16" x="69"><tspan id="SvgjsTspan1651" style="text-decoration:;">向识别</tspan><tspan id="SvgjsTspan1652" style="text-decoration:;font-size: inherit;">/图片/视频审</tspan></tspan><tspan id="SvgjsTspan1653" dy="16" x="69"><tspan id="SvgjsTspan1654" style="text-decoration:;font-size: inherit;">核/词库管理</tspan></tspan></text></g></g><g id="SvgjsG1655" transform="translate(283.4238955118816,522.2662264576413)"><path id="SvgjsPath1656" d="M 0 4Q 0 0 4 0L 133.54482051001264 0Q 137.54482051001264 0 137.54482051001264 4L 137.54482051001264 102.99999999999997Q 137.54482051001264 106.99999999999997 133.54482051001264 106.99999999999997L 4 106.99999999999997Q 0 106.99999999999997 0 102.99999999999997Z" stroke="rgba(33,41,48,1)" stroke-width="1" fill-opacity="1" fill="#ffffff"></path><g id="SvgjsG1657"><text id="SvgjsText1658" font-family="微软雅黑" text-anchor="middle" font-size="13px" width="118px" fill="#323232" font-weight="400" align="middle" lineHeight="125%" anchor="middle" family="微软雅黑" size="13px" weight="400" font-style="" opacity="1" y="10.374999999999986" transform="rotate(0)"><tspan id="SvgjsTspan1659" dy="16" x="69"><tspan id="SvgjsTspan1660" style="text-decoration:;">starter-comments</tspan></tspan><tspan id="SvgjsTspan1661" dy="16" x="69"><tspan id="SvgjsTspan1662" style="text-decoration:;">评论点赞收藏服务</tspan></tspan><tspan id="SvgjsTspan1663" dy="16" x="69"><tspan id="SvgjsTspan1664" style="text-decoration:;"> </tspan></tspan><tspan id="SvgjsTspan1665" dy="16" x="69"><tspan id="SvgjsTspan1666" style="text-decoration:;">涉及：</tspan></tspan><tspan id="SvgjsTspan1667" dy="16" x="69"><tspan id="SvgjsTspan1668" style="text-decoration:;">评论/点赞</tspan></tspan></text></g></g><g id="SvgjsG1669" transform="translate(892.1143629491448,902.2474781904273)"><path id="SvgjsPath1670" d="M 0 4Q 0 0 4 0L 78.99488345484951 0Q 82.99488345484951 0 82.99488345484951 4L 82.99488345484951 57.158787812773696Q 82.99488345484951 61.158787812773696 78.99488345484951 61.158787812773696L 4 61.158787812773696Q 0 61.158787812773696 0 57.158787812773696Z" stroke="rgba(33,41,48,1)" stroke-width="1" fill-opacity="1" fill="#fcf9ea"></path><g id="SvgjsG1671"><text id="SvgjsText1672" font-family="微软雅黑" text-anchor="middle" font-size="13px" width="63px" fill="#323232" font-weight="400" align="middle" lineHeight="125%" anchor="middle" family="微软雅黑" size="13px" weight="400" font-style="" opacity="1" y="19.954393906386848" transform="rotate(0)"><tspan id="SvgjsTspan1673" dy="16" x="41.5"><tspan id="SvgjsTspan1674" style="text-decoration:;">...</tspan></tspan></text></g></g><g id="SvgjsG1675" transform="translate(152.7943247014831,656.1469613147272)"><path id="SvgjsPath1676" d="M 0 4Q 0 0 4 0L 861.2181875055483 0Q 865.2181875055483 0 865.2181875055483 4L 865.2181875055483 102.8530358242499Q 865.2181875055483 106.8530358242499 861.2181875055483 106.8530358242499L 4 106.8530358242499Q 0 106.8530358242499 0 102.8530358242499Z" stroke-dasharray="3,4" stroke="rgba(33,41,48,1)" stroke-width="2" fill-opacity="1" fill="#fadcdb"></path><g id="SvgjsG1677"><text id="SvgjsText1678" font-family="微软雅黑" text-anchor="middle" font-size="13px" width="846px" fill="#323232" font-weight="400" align="top" lineHeight="125%" anchor="middle" family="微软雅黑" size="13px" weight="400" font-style="" opacity="1" y="-2.625" transform="rotate(0)"><tspan id="SvgjsTspan1679" dy="16" x="433"><tspan id="SvgjsTspan1680" style="text-decoration:;">技术组件</tspan></tspan></text></g></g><g id="SvgjsG1681" transform="translate(165.06639003934526,676.7360795357451)"><path id="SvgjsPath1682" d="M 0 4Q 0 0 4 0L 123.9317007319038 0Q 127.9317007319038 0 127.9317007319038 4L 127.9317007319038 72.06392065498972Q 127.9317007319038 76.06392065498972 123.9317007319038 76.06392065498972L 4 76.06392065498972Q 0 76.06392065498972 0 72.06392065498972Z" stroke="rgba(33,41,48,1)" stroke-width="1" fill-opacity="1" fill="#ffffff"></path><g id="SvgjsG1683"><text id="SvgjsText1684" font-family="微软雅黑" text-anchor="middle" font-size="13px" width="108px" fill="#323232" font-weight="400" align="middle" lineHeight="125%" anchor="middle" family="微软雅黑" size="13px" weight="400" font-style="" opacity="1" y="18.906960327494858" transform="rotate(0)"><tspan id="SvgjsTspan1685" dy="16" x="64"><tspan id="SvgjsTspan1686" style="text-decoration:;">starter-scheduler</tspan></tspan><tspan id="SvgjsTspan1687" dy="16" x="64"><tspan id="SvgjsTspan1688" style="text-decoration:;">定时任务中心</tspan></tspan></text></g></g><g id="SvgjsG1689" transform="translate(303.65109257521067,676.7360795357451)"><path id="SvgjsPath1690" d="M 0 4Q 0 0 4 0L 116.99322754259329 0Q 120.99322754259329 0 120.99322754259329 4L 120.99322754259329 72.06392065498972Q 120.99322754259329 76.06392065498972 116.99322754259329 76.06392065498972L 4 76.06392065498972Q 0 76.06392065498972 0 72.06392065498972Z" stroke="rgba(33,41,48,1)" stroke-width="1" fill-opacity="1" fill="#ffffff"></path><g id="SvgjsG1691"><text id="SvgjsText1692" font-family="微软雅黑" text-anchor="middle" font-size="13px" width="101px" fill="#323232" font-weight="400" align="middle" lineHeight="125%" anchor="middle" family="微软雅黑" size="13px" weight="400" font-style="" opacity="1" y="18.906960327494858" transform="rotate(0)"><tspan id="SvgjsTspan1693" dy="16" x="60.5"><tspan id="SvgjsTspan1694" style="text-decoration:;">starter-event事</tspan></tspan><tspan id="SvgjsTspan1695" dy="16" x="60.5"><tspan id="SvgjsTspan1696" style="text-decoration:;">件中心</tspan></tspan></text></g></g><g id="SvgjsG1697" transform="translate(569.5052554314984,676.7360795357451)"><path id="SvgjsPath1698" d="M 0 4Q 0 0 4 0L 115.95408722469001 0Q 119.95408722469001 0 119.95408722469001 4L 119.95408722469001 72.06392065498972Q 119.95408722469001 76.06392065498972 115.95408722469001 76.06392065498972L 4 76.06392065498972Q 0 76.06392065498972 0 72.06392065498972Z" stroke="rgba(33,41,48,1)" stroke-width="1" fill-opacity="1" fill="#ffffff"></path><g id="SvgjsG1699"><text id="SvgjsText1700" font-family="微软雅黑" text-anchor="middle" font-size="13px" width="100px" fill="#323232" font-weight="400" align="middle" lineHeight="125%" anchor="middle" family="微软雅黑" size="13px" weight="400" font-style="" opacity="1" y="18.906960327494858" transform="rotate(0)"><tspan id="SvgjsTspan1701" dy="16" x="60"><tspan id="SvgjsTspan1702" style="text-decoration:;">clover/core</tspan></tspan><tspan id="SvgjsTspan1703" dy="16" x="60"><tspan id="SvgjsTspan1704" style="text-decoration:;">微服务开发框架</tspan></tspan></text></g></g><g id="SvgjsG1705" transform="translate(698.4584188788257,676.7360795357451)"><path id="SvgjsPath1706" d="M 0 4Q 0 0 4 0L 115.95408722469001 0Q 119.95408722469001 0 119.95408722469001 4L 119.95408722469001 72.06392065498972Q 119.95408722469001 76.06392065498972 115.95408722469001 76.06392065498972L 4 76.06392065498972Q 0 76.06392065498972 0 72.06392065498972Z" stroke="rgba(33,41,48,1)" stroke-width="1" fill-opacity="1" fill="#ffffff"></path><g id="SvgjsG1707"><text id="SvgjsText1708" font-family="微软雅黑" text-anchor="middle" font-size="13px" width="100px" fill="#323232" font-weight="400" align="middle" lineHeight="125%" anchor="middle" family="微软雅黑" size="13px" weight="400" font-style="" opacity="1" y="18.906960327494858" transform="rotate(0)"><tspan id="SvgjsTspan1709" dy="16" x="60"><tspan id="SvgjsTspan1710" style="text-decoration:;">clover/global</tspan></tspan><tspan id="SvgjsTspan1711" dy="16" x="60"><tspan id="SvgjsTspan1712" style="text-decoration:;">微服务组件库</tspan></tspan></text></g></g><g id="SvgjsG1713" transform="translate(433.87021933133656,676.7360795357451)"><path id="SvgjsPath1714" d="M 0 4Q 0 0 4 0L 122.40913688662927 0Q 126.40913688662927 0 126.40913688662927 4L 126.40913688662927 72.06392065498972Q 126.40913688662927 76.06392065498972 122.40913688662927 76.06392065498972L 4 76.06392065498972Q 0 76.06392065498972 0 72.06392065498972Z" stroke="rgba(33,41,48,1)" stroke-width="1" fill-opacity="1" fill="#ffffff"></path><g id="SvgjsG1715"><text id="SvgjsText1716" font-family="微软雅黑" text-anchor="middle" font-size="13px" width="107px" fill="#323232" font-weight="400" align="middle" lineHeight="125%" anchor="middle" family="微软雅黑" size="13px" weight="400" font-style="" opacity="1" y="18.906960327494858" transform="rotate(0)"><tspan id="SvgjsTspan1717" dy="16" x="63.5"><tspan id="SvgjsTspan1718" style="text-decoration:;">code-generator</tspan></tspan><tspan id="SvgjsTspan1719" dy="16" x="63.5"><tspan id="SvgjsTspan1720" style="text-decoration:;">代码生成器</tspan></tspan></text></g></g><g id="SvgjsG1721" transform="translate(39.01249694824219,123.24517597571406)"><path id="SvgjsPath1722" d="M 0 4Q 0 0 4 0L 96.20001983642578 0Q 100.20001983642578 0 100.20001983642578 4L 100.20001983642578 135.55482421502086Q 100.20001983642578 139.55482421502086 96.20001983642578 139.55482421502086L 4 139.55482421502086Q 0 139.55482421502086 0 135.55482421502086Z" stroke="rgba(33,41,48,1)" stroke-width="2" fill-opacity="1" fill="#e7ebed"></path><g id="SvgjsG1723"><text id="SvgjsText1724" font-family="微软雅黑" text-anchor="middle" font-size="13px" width="81px" fill="#323232" font-weight="400" align="middle" lineHeight="125%" anchor="middle" family="微软雅黑" size="13px" weight="400" font-style="" opacity="1" y="59.15241210751043" transform="rotate(0)"><tspan id="SvgjsTspan1725" dy="16" x="50.5"><tspan id="SvgjsTspan1726" style="text-decoration:;">前台应用</tspan></tspan></text></g></g><g id="SvgjsG1727" transform="translate(39.01249694824219,274.8565206782401)"><path id="SvgjsPath1728" d="M 0 4Q 0 0 4 0L 96.20001983642578 0Q 100.20001983642578 0 100.20001983642578 4L 100.20001983642578 362.4097000573554Q 100.20001983642578 366.4097000573554 96.20001983642578 366.4097000573554L 4 366.4097000573554Q 0 366.4097000573554 0 362.4097000573554Z" stroke="rgba(33,41,48,1)" stroke-width="2" fill-opacity="1" fill="#e7ebed"></path><g id="SvgjsG1729"><text id="SvgjsText1730" font-family="微软雅黑" text-anchor="middle" font-size="13px" width="81px" fill="#323232" font-weight="400" align="middle" lineHeight="125%" anchor="middle" family="微软雅黑" size="13px" weight="400" font-style="" opacity="1" y="172.5798500286777" transform="rotate(0)"><tspan id="SvgjsTspan1731" dy="16" x="50.5"><tspan id="SvgjsTspan1732" style="text-decoration:;">业务中台</tspan></tspan></text></g></g><g id="SvgjsG1733" transform="translate(39.01249694824219,656.1469613147272)"><path id="SvgjsPath1734" d="M 0 4Q 0 0 4 0L 96.20001983642578 0Q 100.20001983642578 0 100.20001983642578 4L 100.20001983642578 102.8530358242499Q 100.20001983642578 106.8530358242499 96.20001983642578 106.8530358242499L 4 106.8530358242499Q 0 106.8530358242499 0 102.8530358242499Z" stroke="rgba(33,41,48,1)" stroke-width="2" fill-opacity="1" fill="#e7ebed"></path><g id="SvgjsG1735"><text id="SvgjsText1736" font-family="微软雅黑" text-anchor="middle" font-size="13px" width="81px" fill="#323232" font-weight="400" align="middle" lineHeight="125%" anchor="middle" family="微软雅黑" size="13px" weight="400" font-style="" opacity="1" y="42.80151791212495" transform="rotate(0)"><tspan id="SvgjsTspan1737" dy="16" x="50.5"><tspan id="SvgjsTspan1738" style="text-decoration:;">技术中台</tspan></tspan></text></g></g><g id="SvgjsG1739" transform="translate(39.01249694824219,777.8807377181088)"><path id="SvgjsPath1740" d="M 0 4Q 0 0 4 0L 96.20001983642578 0Q 100.20001983642578 0 100.20001983642578 4L 100.20001983642578 221.01820369933424Q 100.20001983642578 225.01820369933424 96.20001983642578 225.01820369933424L 4 225.01820369933424Q 0 225.01820369933424 0 221.01820369933424Z" stroke="rgba(33,41,48,1)" stroke-width="2" fill-opacity="1" fill="#e7ebed"></path><g id="SvgjsG1741"><text id="SvgjsText1742" font-family="微软雅黑" text-anchor="middle" font-size="13px" width="81px" fill="#323232" font-weight="400" align="middle" lineHeight="125%" anchor="middle" family="微软雅黑" size="13px" weight="400" font-style="" opacity="1" y="101.88410184966712" transform="rotate(0)"><tspan id="SvgjsTspan1743" dy="16" x="50.5"><tspan id="SvgjsTspan1744" style="text-decoration:;">基础设施</tspan></tspan></text></g></g><g id="SvgjsG1745" transform="translate(303.49011446398185,298.0213145012143)"><path id="SvgjsPath1746" d="M 0 4Q 0 0 4 0L 117.31518376505096 0Q 121.31518376505096 0 121.31518376505096 4L 121.31518376505096 163.02359764594752Q 121.31518376505096 167.02359764594752 117.31518376505096 167.02359764594752L 4 167.02359764594752Q 0 167.02359764594752 0 163.02359764594752Z" stroke="rgba(33,41,48,1)" stroke-width="1" fill-opacity="1" fill="#ffffff"></path><g id="SvgjsG1747"><text id="SvgjsText1748" font-family="微软雅黑" text-anchor="middle" font-size="13px" width="102px" fill="#323232" font-weight="400" align="middle" lineHeight="125%" anchor="middle" family="微软雅黑" size="13px" weight="400" font-style="" opacity="1" y="23.88679882297376" transform="rotate(0)"><tspan id="SvgjsTspan1749" dy="16" x="61"><tspan id="SvgjsTspan1750" style="text-decoration:;">starter-live直播</tspan></tspan><tspan id="SvgjsTspan1751" dy="16" x="61"><tspan id="SvgjsTspan1752" style="text-decoration:;">业务服务</tspan></tspan><tspan id="SvgjsTspan1753" dy="16" x="61"><tspan id="SvgjsTspan1754" style="text-decoration:;"> </tspan></tspan><tspan id="SvgjsTspan1755" dy="16" x="61"><tspan id="SvgjsTspan1756" style="text-decoration:;">涉及：</tspan></tspan><tspan id="SvgjsTspan1757" dy="16" x="61"><tspan id="SvgjsTspan1758" style="text-decoration:;">视频/评论/禁言/</tspan></tspan><tspan id="SvgjsTspan1759" dy="16" x="61"><tspan id="SvgjsTspan1760" style="text-decoration:;">点赞/关注/充值/</tspan></tspan><tspan id="SvgjsTspan1761" dy="16" x="61"><tspan id="SvgjsTspan1762" style="text-decoration:;">礼物/排行榜等等</tspan></tspan></text></g></g><g id="SvgjsG1763" transform="translate(582.734152028802,522.2662264576413)"><path id="SvgjsPath1764" d="M 0 4Q 0 0 4 0L 99.67835407471364 0Q 103.67835407471364 0 103.67835407471364 4L 103.67835407471364 102.99999999999997Q 103.67835407471364 106.99999999999997 99.67835407471364 106.99999999999997L 4 106.99999999999997Q 0 106.99999999999997 0 102.99999999999997Z" stroke="rgba(33,41,48,1)" stroke-width="1" fill-opacity="1" fill="#ffffff"></path><g id="SvgjsG1765"><text id="SvgjsText1766" font-family="微软雅黑" text-anchor="middle" font-size="13px" width="84px" fill="#323232" font-weight="400" align="middle" lineHeight="125%" anchor="middle" family="微软雅黑" size="13px" weight="400" font-style="" opacity="1" y="10.374999999999986" transform="rotate(0)"><tspan id="SvgjsTspan1767" dy="16" x="52"><tspan id="SvgjsTspan1768" style="text-decoration:;">starter-order</tspan></tspan><tspan id="SvgjsTspan1769" dy="16" x="52"><tspan id="SvgjsTspan1770" style="text-decoration:;">订单服务</tspan></tspan><tspan id="SvgjsTspan1771" dy="16" x="52"><tspan id="SvgjsTspan1772" style="text-decoration:;"> </tspan></tspan><tspan id="SvgjsTspan1773" dy="16" x="52"><tspan id="SvgjsTspan1774" style="text-decoration:;">涉及：</tspan></tspan><tspan id="SvgjsTspan1775" dy="16" x="52"><tspan id="SvgjsTspan1776" style="text-decoration:;">订单/快照</tspan></tspan></text></g></g><g id="SvgjsG1777" transform="translate(698.4584188788257,522.2662264576413)"><path id="SvgjsPath1778" d="M 0 4Q 0 0 4 0L 133.54482051001264 0Q 137.54482051001264 0 137.54482051001264 4L 137.54482051001264 102.99999999999997Q 137.54482051001264 106.99999999999997 133.54482051001264 106.99999999999997L 4 106.99999999999997Q 0 106.99999999999997 0 102.99999999999997Z" stroke="rgba(33,41,48,1)" stroke-width="1" fill-opacity="1" fill="#ffffff"></path><g id="SvgjsG1779"><text id="SvgjsText1780" font-family="微软雅黑" text-anchor="middle" font-size="13px" width="118px" fill="#323232" font-weight="400" align="middle" lineHeight="125%" anchor="middle" family="微软雅黑" size="13px" weight="400" font-style="" opacity="1" y="10.374999999999986" transform="rotate(0)"><tspan id="SvgjsTspan1781" dy="16" x="69"><tspan id="SvgjsTspan1782" style="text-decoration:;">starter-payment</tspan></tspan><tspan id="SvgjsTspan1783" dy="16" x="69"><tspan id="SvgjsTspan1784" style="text-decoration:;">支付服务</tspan></tspan><tspan id="SvgjsTspan1785" dy="16" x="69"><tspan id="SvgjsTspan1786" style="text-decoration:;"> </tspan></tspan><tspan id="SvgjsTspan1787" dy="16" x="69"><tspan id="SvgjsTspan1788" style="text-decoration:;">涉及：</tspan></tspan><tspan id="SvgjsTspan1789" dy="16" x="69"><tspan id="SvgjsTspan1790" style="text-decoration:;">多渠道支付</tspan></tspan></text></g></g><g id="SvgjsG1791" transform="translate(42.212501525878906,56.99999713897705)"><path id="SvgjsPath1792" d="M 0 0L 975.8000106811523 0L 975.8000106811523 51.00000286102295L 0 51.00000286102295Z" stroke="none" fill="none"></path><g id="SvgjsG1793"><text id="SvgjsText1794" font-family="微软雅黑" text-anchor="middle" font-size="23px" width="976px" fill="#323232" font-weight="700" align="middle" lineHeight="125%" anchor="middle" family="微软雅黑" size="23px" weight="700" font-style="" opacity="1" y="5.125001430511475" transform="rotate(0)"><tspan id="SvgjsTspan1795" dy="28" x="488"><tspan id="SvgjsTspan1796" style="text-decoration:;">以一个Saas化的直播电商平台为例</tspan></tspan></text></g></g><g id="SvgjsG1797" transform="translate(438.9641724529149,298.0213145012143)"><path id="SvgjsPath1798" d="M 0 4Q 0 0 4 0L 137.44833365060072 0Q 141.44833365060072 0 141.44833365060072 4L 141.44833365060072 163.02359764594752Q 141.44833365060072 167.02359764594752 137.44833365060072 167.02359764594752L 4 167.02359764594752Q 0 167.02359764594752 0 163.02359764594752Z" stroke="rgba(33,41,48,1)" stroke-width="1" fill-opacity="1" fill="#ffffff"></path><g id="SvgjsG1799"><text id="SvgjsText1800" font-family="微软雅黑" text-anchor="middle" font-size="13px" width="122px" fill="#323232" font-weight="400" align="middle" lineHeight="125%" anchor="middle" family="微软雅黑" size="13px" weight="400" font-style="" opacity="1" y="23.88679882297376" transform="rotate(0)"><tspan id="SvgjsTspan1801" dy="16" x="71"><tspan id="SvgjsTspan1802" style="text-decoration:;">starter-</tspan><tspan id="SvgjsTspan1803" style="text-decoration:;color: rgb(51, 51, 51);">ecommerce</tspan></tspan><tspan id="SvgjsTspan1804" dy="16" x="71"><tspan id="SvgjsTspan1805" style="text-decoration:;color: rgb(51, 51, 51);">电商业务服务</tspan></tspan><tspan id="SvgjsTspan1806" dy="16" x="71"><tspan id="SvgjsTspan1807" style="text-decoration:;"> </tspan></tspan><tspan id="SvgjsTspan1808" dy="16" x="71"><tspan id="SvgjsTspan1809" style="text-decoration:;color: rgb(51, 51, 51);">涉及：</tspan></tspan><tspan id="SvgjsTspan1810" dy="16" x="71"><tspan id="SvgjsTspan1811" style="text-decoration:;color: rgb(51, 51, 51);">商户/会员/充值/商</tspan></tspan><tspan id="SvgjsTspan1812" dy="16" x="71"><tspan id="SvgjsTspan1813" style="text-decoration:;color: rgb(51, 51, 51);">品/评论/收藏/下单/</tspan></tspan><tspan id="SvgjsTspan1814" dy="16" x="71"><tspan id="SvgjsTspan1815" style="text-decoration:;color: rgb(51, 51, 51);">支付/物流/售后</tspan></tspan></text></g></g><g id="SvgjsG1816" transform="translate(848.0491521641484,522.2662264576413)"><path id="SvgjsPath1817" d="M 0 4Q 0 0 4 0L 133.54482051001264 0Q 137.54482051001264 0 137.54482051001264 4L 137.54482051001264 102.99999999999997Q 137.54482051001264 106.99999999999997 133.54482051001264 106.99999999999997L 4 106.99999999999997Q 0 106.99999999999997 0 102.99999999999997Z" stroke="rgba(33,41,48,1)" stroke-width="1" fill-opacity="1" fill="#ffffff"></path><g id="SvgjsG1818"><text id="SvgjsText1819" font-family="微软雅黑" text-anchor="middle" font-size="13px" width="118px" fill="#323232" font-weight="400" align="middle" lineHeight="125%" anchor="middle" family="微软雅黑" size="13px" weight="400" font-style="" opacity="1" y="10.374999999999986" transform="rotate(0)"><tspan id="SvgjsTspan1820" dy="16" x="69"><tspan id="SvgjsTspan1821" style="text-decoration:;">starter-logistics</tspan></tspan><tspan id="SvgjsTspan1822" dy="16" x="69"><tspan id="SvgjsTspan1823" style="text-decoration:;">物流服务</tspan></tspan><tspan id="SvgjsTspan1824" dy="16" x="69"><tspan id="SvgjsTspan1825" style="text-decoration:;"> </tspan></tspan><tspan id="SvgjsTspan1826" dy="16" x="69"><tspan id="SvgjsTspan1827" style="text-decoration:;">涉及：</tspan></tspan><tspan id="SvgjsTspan1828" dy="16" x="69"><tspan id="SvgjsTspan1829" style="text-decoration:;">物流下单/物流查询</tspan></tspan></text></g></g><g id="SvgjsG1830" transform="translate(433.0790237703418,139.26747287305585)"><path id="SvgjsPath1831" d="M 0 4Q 0 0 4 0L 123.99152800861884 0Q 127.99152800861884 0 127.99152800861884 4L 127.99152800861884 43.21615205609399Q 127.99152800861884 47.21615205609399 123.99152800861884 47.21615205609399L 4 47.21615205609399Q 0 47.21615205609399 0 43.21615205609399Z" stroke="rgba(33,41,48,1)" stroke-width="1" fill-opacity="1" fill="#ffffff"></path><g id="SvgjsG1832"><text id="SvgjsText1833" font-family="微软雅黑" text-anchor="middle" font-size="13px" width="108px" fill="#323232" font-weight="400" align="middle" lineHeight="125%" anchor="middle" family="微软雅黑" size="13px" weight="400" font-style="" opacity="1" y="12.983076028046995" transform="rotate(0)"><tspan id="SvgjsTspan1834" dy="16" x="64"><tspan id="SvgjsTspan1835" style="text-decoration:;">直播电商管理后台</tspan></tspan></text></g></g></svg>