<svg id="SvgjsSvg1001" width="1060" height="972" xmlns="http://www.w3.org/2000/svg" version="1.1" xmlns:xlink="http://www.w3.org/1999/xlink" xmlns:svgjs="http://svgjs.com/svgjs"><defs id="SvgjsDefs1002"><pattern id="SvgjsPattern1112" x="0" y="0" width="20.88281185759513" height="22.044442918565608" patternUnits="userSpaceOnUse"><image id="SvgjsImage1113" xlink:href="https://iconsapi.com/5ee982f1e4b01754b3cccaa9.svg" width="20.88281185759513" height="22.044442918565608" preserveAspectRatio="none" crossOrigin="anonymous" x="0" y="0"></image></pattern><pattern id="SvgjsPattern1116" x="0" y="0" width="20" height="20" patternUnits="userSpaceOnUse"><image id="SvgjsImage1117" xlink:href="https://iconsapi.com/5ee982c9e4b01754b3ccc9bd.svg" width="20" height="20" preserveAspectRatio="none" crossOrigin="anonymous" x="0" y="0"></image></pattern><pattern id="SvgjsPattern1128" x="0" y="0" width="20" height="20" patternUnits="userSpaceOnUse"><image id="SvgjsImage1129" xlink:href="https://iconsapi.com/5ee98300e4b01754b3cccb03.svg" width="20" height="20" preserveAspectRatio="none" crossOrigin="anonymous" x="0" y="0"></image></pattern><pattern id="SvgjsPattern1132" x="0" y="0" width="18.97281317216442" height="20" patternUnits="userSpaceOnUse"><image id="SvgjsImage1133" xlink:href="https://iconsapi.com/5ee982e0e4b01754b3ccca46.svg" width="18.97281317216442" height="20" preserveAspectRatio="none" crossOrigin="anonymous" x="0" y="0"></image></pattern></defs><g id="SvgjsG1008" transform="translate(25.01251220703125,25)"><path id="SvgjsPath1009" d="M 0 0L 1010.2000198364258 0L 1010.2000198364258 922.4000015258789L 0 922.4000015258789Z" stroke="none" fill-opacity="1" fill="#ffffff"></path><g id="SvgjsG1010"><text id="SvgjsText1011" font-family="微软雅黑" text-anchor="middle" font-size="13px" width="991px" fill="#323232" font-weight="400" align="middle" lineHeight="125%" anchor="middle" family="微软雅黑" size="13px" weight="400" font-style="" opacity="1" y="450.57500076293945" transform="rotate(0)"></text></g></g><g id="SvgjsG1012" transform="translate(152.79433996027217,427.86622779278537)"><path id="SvgjsPath1013" d="M 0 4Q 0 0 4 0L 861.218187505548 0Q 865.218187505548 0 865.218187505548 4L 865.218187505548 136.9999942779541Q 865.218187505548 140.9999942779541 861.218187505548 140.9999942779541L 4 140.9999942779541Q 0 140.9999942779541 0 136.9999942779541Z" stroke-dasharray="3,4" stroke="rgba(33,41,48,1)" stroke-width="2" fill-opacity="1" fill="#fff9c4"></path><g id="SvgjsG1014"><text id="SvgjsText1015" font-family="微软雅黑" text-anchor="middle" font-size="13px" width="846px" fill="#323232" font-weight="400" align="top" lineHeight="125%" anchor="middle" family="微软雅黑" size="13px" weight="400" font-style="" opacity="1" y="-2.625" transform="rotate(0)"><tspan id="SvgjsTspan1016" dy="16" x="433"><tspan id="SvgjsTspan1017" style="text-decoration:;">基础能力服务</tspan></tspan></text></g></g><g id="SvgjsG1018" transform="translate(152.79433996027217,705.4807390532528)"><path id="SvgjsPath1019" d="M 0 4Q 0 0 4 0L 861.2181875055483 0Q 865.2181875055483 0 865.2181875055483 4L 865.2181875055483 221.0182036993342Q 865.2181875055483 225.0182036993342 861.2181875055483 225.0182036993342L 4 225.0182036993342Q 0 225.0182036993342 0 221.0182036993342Z" stroke-dasharray="3,4" stroke="rgba(33,41,48,1)" stroke-width="2" fill-opacity="1" fill="#e1bee7"></path><g id="SvgjsG1020"><text id="SvgjsText1021" font-family="微软雅黑" text-anchor="middle" font-size="13px" width="846px" fill="#323232" font-weight="400" align="top" lineHeight="125%" anchor="middle" family="微软雅黑" size="13px" weight="400" font-style="" opacity="1" y="-2.625" transform="rotate(0)"><tspan id="SvgjsTspan1022" dy="16" x="433"><tspan id="SvgjsTspan1023" style="text-decoration:;">基础设施</tspan></tspan></text></g></g><g id="SvgjsG1024" transform="translate(152.79433996027217,202.45652201338407)"><path id="SvgjsPath1025" d="M 0 4Q 0 0 4 0L 861.2181875055483 0Q 865.2181875055483 0 865.2181875055483 4L 865.2181875055483 206.52896520026962Q 865.2181875055483 210.52896520026962 861.2181875055483 210.52896520026962L 4 210.52896520026962Q 0 210.52896520026962 0 206.52896520026962Z" stroke-dasharray="3,4" stroke="rgba(33,41,48,1)" stroke-width="2" fill-opacity="1" fill="#c8e6c9"></path><g id="SvgjsG1026"><text id="SvgjsText1027" font-family="微软雅黑" text-anchor="middle" font-size="13px" width="846px" fill="#323232" font-weight="400" align="top" lineHeight="125%" anchor="middle" family="微软雅黑" size="13px" weight="400" font-style="" opacity="1" y="-2.625" transform="rotate(0)"><tspan id="SvgjsTspan1028" dy="16" x="433"><tspan id="SvgjsTspan1029" style="text-decoration:;">业务组装服务</tspan></tspan></text></g></g><g id="SvgjsG1030" transform="translate(678.1047202386831,727.9840311457685)"><path id="SvgjsPath1031" d="M 0 4Q 0 0 4 0L 319.00454142410035 0Q 323.00454142410035 0 323.00454142410035 4L 323.00454142410035 185.3176858222264Q 323.00454142410035 189.3176858222264 319.00454142410035 189.3176858222264L 4 189.3176858222264Q 0 189.3176858222264 0 185.3176858222264Z" stroke-dasharray="10,6,3,6" stroke="rgba(33,41,48,1)" stroke-width="2" fill-opacity="1" fill="#ffffff"></path><g id="SvgjsG1032"><text id="SvgjsText1033" font-family="微软雅黑" text-anchor="middle" font-size="13px" width="304px" fill="#323232" font-weight="400" align="top" lineHeight="125%" anchor="middle" family="微软雅黑" size="13px" weight="400" font-style="" opacity="1" y="-2.625" transform="rotate(0)"><tspan id="SvgjsTspan1034" dy="16" x="162"><tspan id="SvgjsTspan1035" style="text-decoration:;">其他基础设施</tspan></tspan></text></g></g><g id="SvgjsG1036" transform="translate(169.6976057633093,727.8698546039827)"><path id="SvgjsPath1037" d="M 0 4Q 0 0 4 0L 281.94891079282826 0Q 285.94891079282826 0 285.94891079282826 4L 285.94891079282826 185.546038905798Q 285.94891079282826 189.546038905798 281.94891079282826 189.546038905798L 4 189.546038905798Q 0 189.546038905798 0 185.546038905798Z" stroke-dasharray="10,6,3,6" stroke="rgba(33,41,48,1)" stroke-width="2" fill-opacity="1" fill="#ffffff"></path><g id="SvgjsG1038"><text id="SvgjsText1039" font-family="微软雅黑" text-anchor="middle" font-size="13px" width="266px" fill="#323232" font-weight="400" align="top" lineHeight="125%" anchor="middle" family="微软雅黑" size="13px" weight="400" font-style="" opacity="1" y="-2.625" transform="rotate(0)"><tspan id="SvgjsTspan1040" dy="16" x="143"><tspan id="SvgjsTspan1041" style="text-decoration:;">服务治理相关</tspan></tspan></text></g></g><g id="SvgjsG1042" transform="translate(183.6267120779802,750.4456360382349)"><path id="SvgjsPath1043" d="M 0 4Q 0 0 4 0L 65.3230796744806 0Q 69.3230796744806 0 69.3230796744806 4L 69.3230796744806 145.04585010040933Q 69.3230796744806 149.04585010040933 65.3230796744806 149.04585010040933L 4 149.04585010040933Q 0 149.04585010040933 0 145.04585010040933Z" stroke="rgba(33,41,48,1)" stroke-width="1" fill-opacity="1" fill="#ffcdd2"></path><g id="SvgjsG1044"><text id="SvgjsText1045" font-family="微软雅黑" text-anchor="middle" font-size="13px" width="50px" fill="#323232" font-weight="400" align="middle" lineHeight="125%" anchor="middle" family="微软雅黑" size="13px" weight="400" font-style="" opacity="1" y="31.397925050204663" transform="rotate(0)"><tspan id="SvgjsTspan1046" dy="16" x="35"><tspan id="SvgjsTspan1047" style="text-decoration:;">consul</tspan></tspan><tspan id="SvgjsTspan1048" dy="16" x="35"><tspan id="SvgjsTspan1049" style="text-decoration:;">注册中</tspan></tspan><tspan id="SvgjsTspan1050" dy="16" x="35"><tspan id="SvgjsTspan1051" style="text-decoration:;">心</tspan></tspan><tspan id="SvgjsTspan1052" dy="16" x="35"><tspan id="SvgjsTspan1053" style="text-decoration:;">配置中</tspan></tspan><tspan id="SvgjsTspan1054" dy="16" x="35"><tspan id="SvgjsTspan1055" style="text-decoration:;">心</tspan></tspan></text></g></g><g id="SvgjsG1056" transform="translate(260.5648861905398,746.9918169023931)"><path id="SvgjsPath1057" d="M 0 4Q 0 0 4 0L 71.56403318054436 0Q 75.56403318054436 0 75.56403318054436 4L 75.56403318054436 98Q 75.56403318054436 102 71.56403318054436 102L 4 102Q 0 102 0 98Z" stroke="rgba(33,41,48,1)" stroke-width="1" fill-opacity="1" fill="#b2ebf2"></path><g id="SvgjsG1058"><text id="SvgjsText1059" font-family="微软雅黑" text-anchor="middle" font-size="13px" width="56px" fill="#323232" font-weight="400" align="middle" lineHeight="125%" anchor="middle" family="微软雅黑" size="13px" weight="400" font-style="" opacity="1" y="31.875" transform="rotate(0)"><tspan id="SvgjsTspan1060" dy="16" x="38"><tspan id="SvgjsTspan1061" style="text-decoration:;">jaeger</tspan></tspan><tspan id="SvgjsTspan1062" dy="16" x="38"><tspan id="SvgjsTspan1063" style="text-decoration:;">链路追踪</tspan></tspan></text></g></g><g id="SvgjsG1064" transform="translate(260.5648861905398,857.2476308558814)"><path id="SvgjsPath1065" d="M 0 4Q 0 0 4 0L 176.29524624896158 0Q 180.29524624896158 0 180.29524624896158 4L 180.29524624896158 35.39534883720922Q 180.29524624896158 39.39534883720922 176.29524624896158 39.39534883720922L 4 39.39534883720922Q 0 39.39534883720922 0 35.39534883720922Z" stroke="rgba(33,41,48,1)" stroke-width="1" fill-opacity="1" fill="#c8e6c9"></path><g id="SvgjsG1066"><text id="SvgjsText1067" font-family="微软雅黑" text-anchor="middle" font-size="13px" width="161px" fill="#323232" font-weight="400" align="middle" lineHeight="125%" anchor="middle" family="微软雅黑" size="13px" weight="400" font-style="" opacity="1" y="0.5726744186046098" transform="rotate(0)"><tspan id="SvgjsTspan1068" dy="16" x="90.5"><tspan id="SvgjsTspan1069" style="text-decoration:;">opentelemetry-collector</tspan></tspan><tspan id="SvgjsTspan1070" dy="16" x="90.5"><tspan id="SvgjsTspan1071" style="text-decoration:;">遥测代理服务</tspan></tspan></text></g></g><g id="SvgjsG1072" transform="translate(343.7440138091632,800.9453052744861)"><path id="SvgjsPath1073" d="M 0 4Q 0 0 4 0L 93.06055334402683 0Q 97.06055334402683 0 97.06055334402683 4L 97.06055334402683 44.04651162790695Q 97.06055334402683 48.04651162790695 93.06055334402683 48.04651162790695L 4 48.04651162790695Q 0 48.04651162790695 0 44.04651162790695Z" stroke="rgba(33,41,48,1)" stroke-width="1" fill-opacity="1" fill="#e1bee7"></path><g id="SvgjsG1074"><text id="SvgjsText1075" font-family="微软雅黑" text-anchor="middle" font-size="13px" width="78px" fill="#323232" font-weight="400" align="middle" lineHeight="125%" anchor="middle" family="微软雅黑" size="13px" weight="400" font-style="" opacity="1" y="4.898255813953476" transform="rotate(0)"><tspan id="SvgjsTspan1076" dy="16" x="49"><tspan id="SvgjsTspan1077" style="text-decoration:;">prometheus</tspan></tspan><tspan id="SvgjsTspan1078" dy="16" x="49"><tspan id="SvgjsTspan1079" style="text-decoration:;">指标收集</tspan></tspan></text></g></g><g id="SvgjsG1080" transform="translate(470.64197513203726,727.9840311457685)"><path id="SvgjsPath1081" d="M 0 4Q 0 0 4 0L 188.46728653074615 0Q 192.46728653074615 0 192.46728653074615 4L 192.46728653074615 185.3176858222264Q 192.46728653074615 189.3176858222264 188.46728653074615 189.3176858222264L 4 189.3176858222264Q 0 189.3176858222264 0 185.3176858222264Z" stroke-dasharray="10,6,3,6" stroke="rgba(33,41,48,1)" stroke-width="2" fill-opacity="1" fill="#ffffff"></path><g id="SvgjsG1082"><text id="SvgjsText1083" font-family="微软雅黑" text-anchor="middle" font-size="13px" width="173px" fill="#323232" font-weight="400" align="top" lineHeight="125%" anchor="middle" family="微软雅黑" size="13px" weight="400" font-style="" opacity="1" y="-2.625" transform="rotate(0)"><tspan id="SvgjsTspan1084" dy="16" x="96.5"><tspan id="SvgjsTspan1085" style="text-decoration:;">日志治理相关</tspan></tspan></text></g></g><g id="SvgjsG1086" transform="translate(480.07109997152963,858.4975789237385)"><path id="SvgjsPath1087" d="M 0 4Q 0 0 4 0L 170.1307718301869 0Q 174.1307718301869 0 174.1307718301869 4L 174.1307718301869 35.395348837208076Q 174.1307718301869 39.395348837208076 170.1307718301869 39.395348837208076L 4 39.395348837208076Q 0 39.395348837208076 0 35.395348837208076Z" stroke="rgba(33,41,48,1)" stroke-width="1" fill-opacity="1" fill="#ffe0b2"></path><g id="SvgjsG1088"><text id="SvgjsText1089" font-family="微软雅黑" text-anchor="middle" font-size="13px" width="155px" fill="#323232" font-weight="400" align="middle" lineHeight="125%" anchor="middle" family="微软雅黑" size="13px" weight="400" font-style="" opacity="1" y="0.5726744186040378" transform="rotate(0)"><tspan id="SvgjsTspan1090" dy="16" x="87.5"><tspan id="SvgjsTspan1091" style="text-decoration:;">filebeat</tspan></tspan><tspan id="SvgjsTspan1092" dy="16" x="87.5"><tspan id="SvgjsTspan1093" style="text-decoration:;">日志文件扫描器</tspan></tspan></text></g></g><g id="SvgjsG1094" transform="translate(480.0710999715295,800.1498051069668)"><path id="SvgjsPath1095" d="M 0 4Q 0 0 4 0L 170.13077183018717 0Q 174.13077183018717 0 174.13077183018717 4L 174.13077183018717 46.220501470968884Q 174.13077183018717 50.220501470968884 170.13077183018717 50.220501470968884L 4 50.220501470968884Q 0 50.220501470968884 0 46.220501470968884Z" stroke="rgba(33,41,48,1)" stroke-width="1" fill-opacity="1" fill="#bbdefb"></path><g id="SvgjsG1096"><text id="SvgjsText1097" font-family="微软雅黑" text-anchor="middle" font-size="13px" width="155px" fill="#323232" font-weight="400" align="middle" lineHeight="125%" anchor="middle" family="微软雅黑" size="13px" weight="400" font-style="" opacity="1" y="5.985250735484442" transform="rotate(0)"><tspan id="SvgjsTspan1098" dy="16" x="87.5"><tspan id="SvgjsTspan1099" style="text-decoration:;">elasticsearch</tspan></tspan><tspan id="SvgjsTspan1100" dy="16" x="87.5"><tspan id="SvgjsTspan1101" style="text-decoration:;">日志数据库</tspan></tspan></text></g></g><g id="SvgjsG1102" transform="translate(343.79957909547454,746.9918169023931)"><path id="SvgjsPath1103" d="M 0 4Q 0 0 4 0L 93.06055334402683 0Q 97.06055334402683 0 97.06055334402683 4L 97.06055334402683 44.04651162790695Q 97.06055334402683 48.04651162790695 93.06055334402683 48.04651162790695L 4 48.04651162790695Q 0 48.04651162790695 0 44.04651162790695Z" stroke="rgba(33,41,48,1)" stroke-width="1" fill-opacity="1" fill="#e0e0e0"></path><g id="SvgjsG1104"><text id="SvgjsText1105" font-family="微软雅黑" text-anchor="middle" font-size="13px" width="78px" fill="#000000" font-weight="400" align="middle" lineHeight="125%" anchor="middle" family="微软雅黑" size="13px" weight="400" font-style="" opacity="1" y="4.898255813953476" transform="rotate(0)"><tspan id="SvgjsTspan1106" dy="16" x="49"><tspan id="SvgjsTspan1107" style="text-decoration:;">grafana</tspan></tspan><tspan id="SvgjsTspan1108" dy="16" x="49"><tspan id="SvgjsTspan1109" style="text-decoration:;">视图面板</tspan></tspan></text></g></g><g id="SvgjsG1110" transform="translate(347.342067585318,756.2341956892544)"><path id="SvgjsPath1111" d="M 0 0L 20.88281185759513 0L 20.88281185759513 22.044442918565608L 0 22.044442918565608Z" stroke="none" fill="url(#SvgjsPattern1112)"></path></g><g id="SvgjsG1114" transform="translate(488.00365368531925,868.1952533423425)"><path id="SvgjsPath1115" d="M 0 0L 20 0L 20 20L 0 20Z" stroke="none" fill="url(#SvgjsPattern1116)"></path></g><g id="SvgjsG1118" transform="translate(480.0710999715295,748.1494032419341)"><path id="SvgjsPath1119" d="M 0 4Q 0 0 4 0L 170.13077183018717 0Q 174.13077183018717 0 174.13077183018717 4L 174.13077183018717 39.220903336001584Q 174.13077183018717 43.220903336001584 170.13077183018717 43.220903336001584L 4 43.220903336001584Q 0 43.220903336001584 0 39.220903336001584Z" stroke="rgba(33,41,48,1)" stroke-width="1" fill-opacity="1" fill="#c8e6c9"></path><g id="SvgjsG1120"><text id="SvgjsText1121" font-family="微软雅黑" text-anchor="middle" font-size="13px" width="155px" fill="#323232" font-weight="400" align="middle" lineHeight="125%" anchor="middle" family="微软雅黑" size="13px" weight="400" font-style="" opacity="1" y="2.485451668000792" transform="rotate(0)"><tspan id="SvgjsTspan1122" dy="16" x="87.5"><tspan id="SvgjsTspan1123" style="text-decoration:;">kibana</tspan></tspan><tspan id="SvgjsTspan1124" dy="16" x="87.5"><tspan id="SvgjsTspan1125" style="text-decoration:;">数据分析视图面板</tspan></tspan></text></g></g><g id="SvgjsG1126" transform="translate(488.9708869350186,757.1494032419346)"><path id="SvgjsPath1127" d="M 0 0L 20 0L 20 20L 0 20Z" stroke="none" fill="url(#SvgjsPattern1128)"></path></g><g id="SvgjsG1130" transform="translate(489.9980737628541,809.8474795255713)"><path id="SvgjsPath1131" d="M 0 0L 18.97281317216442 0L 18.97281317216442 20L 0 20Z" stroke="none" fill="url(#SvgjsPattern1132)"></path></g><g id="SvgjsG1134" transform="translate(690.795981574363,751.4416357429066)"><path id="SvgjsPath1135" d="M 0 4Q 0 0 4 0L 137.7012288690332 0Q 141.7012288690332 0 141.7012288690332 4L 141.7012288690332 57.158787812773696Q 141.7012288690332 61.158787812773696 137.7012288690332 61.158787812773696L 4 61.158787812773696Q 0 61.158787812773696 0 57.158787812773696Z" stroke="rgba(33,41,48,1)" stroke-width="1" fill-opacity="1" fill="#b2ebf2"></path><g id="SvgjsG1136"><text id="SvgjsText1137" font-family="微软雅黑" text-anchor="middle" font-size="13px" width="122px" fill="#323232" font-weight="400" align="middle" lineHeight="125%" anchor="middle" family="微软雅黑" size="13px" weight="400" font-style="" opacity="1" y="11.454393906386848" transform="rotate(0)"><tspan id="SvgjsTspan1138" dy="16" x="71"><tspan id="SvgjsTspan1139" style="text-decoration:;">PostgreSQL</tspan></tspan><tspan id="SvgjsTspan1140" dy="16" x="71"><tspan id="SvgjsTspan1141" style="text-decoration:;">关系数据库</tspan></tspan></text></g></g><g id="SvgjsG1142" transform="translate(796.742219635622,829.8474795255713)"><path id="SvgjsPath1143" d="M 0 4Q 0 0 4 0L 78.99488345484951 0Q 82.99488345484951 0 82.99488345484951 4L 82.99488345484951 57.158787812773696Q 82.99488345484951 61.158787812773696 78.99488345484951 61.158787812773696L 4 61.158787812773696Q 0 61.158787812773696 0 57.158787812773696Z" stroke="rgba(33,41,48,1)" stroke-width="1" fill-opacity="1" fill="#e57373"></path><g id="SvgjsG1144"><text id="SvgjsText1145" font-family="微软雅黑" text-anchor="middle" font-size="13px" width="63px" fill="#323232" font-weight="400" align="middle" lineHeight="125%" anchor="middle" family="微软雅黑" size="13px" weight="400" font-style="" opacity="1" y="11.454393906386848" transform="rotate(0)"><tspan id="SvgjsTspan1146" dy="16" x="41.5"><tspan id="SvgjsTspan1147" style="text-decoration:;">redis</tspan></tspan><tspan id="SvgjsTspan1148" dy="16" x="41.5"><tspan id="SvgjsTspan1149" style="text-decoration:;">缓存</tspan></tspan></text></g></g><g id="SvgjsG1150" transform="translate(690.795981574363,829.8474795255713)"><path id="SvgjsPath1151" d="M 0 4Q 0 0 4 0L 89.56896294379624 0Q 93.56896294379624 0 93.56896294379624 4L 93.56896294379624 57.158787812773696Q 93.56896294379624 61.158787812773696 89.56896294379624 61.158787812773696L 4 61.158787812773696Q 0 61.158787812773696 0 57.158787812773696Z" stroke="rgba(33,41,48,1)" stroke-width="1" fill-opacity="1" fill="#c8e6c9"></path><g id="SvgjsG1152"><text id="SvgjsText1153" font-family="微软雅黑" text-anchor="middle" font-size="13px" width="74px" fill="#323232" font-weight="400" align="middle" lineHeight="125%" anchor="middle" family="微软雅黑" size="13px" weight="400" font-style="" opacity="1" y="11.454393906386848" transform="rotate(0)"><tspan id="SvgjsTspan1154" dy="16" x="47"><tspan id="SvgjsTspan1155" style="text-decoration:;">NSQ</tspan></tspan><tspan id="SvgjsTspan1156" dy="16" x="47"><tspan id="SvgjsTspan1157" style="text-decoration:;">消息队列</tspan></tspan></text></g></g><g id="SvgjsG1158" transform="translate(172.97149568685734,223.04564023440201)"><path id="SvgjsPath1159" d="M 0 4Q 0 0 4 0L 106.4524150838134 0Q 110.4524150838134 0 110.4524150838134 4L 110.4524150838134 165.3507287582336Q 110.4524150838134 169.3507287582336 106.4524150838134 169.3507287582336L 4 169.3507287582336Q 0 169.3507287582336 0 165.3507287582336Z" stroke="rgba(33,41,48,1)" stroke-width="1" fill-opacity="1" fill="#ffffff"></path><g id="SvgjsG1160"><text id="SvgjsText1161" font-family="微软雅黑" text-anchor="middle" font-size="13px" width="91px" fill="#323232" font-weight="400" align="middle" lineHeight="125%" anchor="middle" family="微软雅黑" size="13px" weight="400" font-style="" opacity="1" y="33.0503643791168" transform="rotate(0)"><tspan id="SvgjsTspan1162" dy="16" x="55.5"><tspan id="SvgjsTspan1163" style="text-decoration:;">starter-auth权</tspan></tspan><tspan id="SvgjsTspan1164" dy="16" x="55.5"><tspan id="SvgjsTspan1165" style="text-decoration:;">限中心服务</tspan></tspan><tspan id="SvgjsTspan1166" dy="16" x="55.5"><tspan id="SvgjsTspan1167" style="text-decoration:;">涉及：</tspan></tspan><tspan id="SvgjsTspan1168" dy="16" x="55.5"><tspan id="SvgjsTspan1169" style="text-decoration:;">租户/用户/角</tspan></tspan><tspan id="SvgjsTspan1170" dy="16" x="55.5"><tspan id="SvgjsTspan1171" style="text-decoration:;">色/权限/凭证管</tspan></tspan><tspan id="SvgjsTspan1172" dy="16" x="55.5"><tspan id="SvgjsTspan1173" style="text-decoration:;">理</tspan></tspan></text></g></g><g id="SvgjsG1174" transform="translate(304.9790087298776,224.2092057905449)"><path id="SvgjsPath1175" d="M 0 4Q 0 0 4 0L 111.62949799060516 0Q 115.62949799060516 0 115.62949799060516 4L 115.62949799060516 163.02359764594752Q 115.62949799060516 167.02359764594752 111.62949799060516 167.02359764594752L 4 167.02359764594752Q 0 167.02359764594752 0 163.02359764594752Z" stroke="rgba(33,41,48,1)" stroke-width="1" fill-opacity="1" fill="#ffffff"></path><g id="SvgjsG1176"><text id="SvgjsText1177" font-family="微软雅黑" text-anchor="middle" font-size="13px" width="96px" fill="#323232" font-weight="400" align="middle" lineHeight="125%" anchor="middle" family="微软雅黑" size="13px" weight="400" font-style="" opacity="1" y="31.88679882297376" transform="rotate(0)"><tspan id="SvgjsTspan1178" dy="16" x="58"><tspan id="SvgjsTspan1179" style="text-decoration:;">starter-live直播</tspan></tspan><tspan id="SvgjsTspan1180" dy="16" x="58"><tspan id="SvgjsTspan1181" style="text-decoration:;">业务服务</tspan></tspan><tspan id="SvgjsTspan1182" dy="16" x="58"><tspan id="SvgjsTspan1183" style="text-decoration:;">涉及：</tspan></tspan><tspan id="SvgjsTspan1184" dy="16" x="58"><tspan id="SvgjsTspan1185" style="text-decoration:;">视频/评论/点赞/</tspan></tspan><tspan id="SvgjsTspan1186" dy="16" x="58"><tspan id="SvgjsTspan1187" style="text-decoration:;">关注/礼物/排行</tspan></tspan><tspan id="SvgjsTspan1188" dy="16" x="58"><tspan id="SvgjsTspan1189" style="text-decoration:;">等等</tspan></tspan></text></g></g><g id="SvgjsG1190" transform="translate(152.79433996027194,116.12591386721812)"><path id="SvgjsPath1191" d="M 0 4Q 0 0 4 0L 861.2181875055485 0Q 865.2181875055485 0 865.2181875055485 4L 865.2181875055485 70.27408765866079Q 865.2181875055485 74.27408765866079 861.2181875055485 74.27408765866079L 4 74.27408765866079Q 0 74.27408765866079 0 70.27408765866079Z" stroke-dasharray="3,4" stroke="rgba(33,41,48,1)" stroke-width="2" fill-opacity="1" fill="#ffe0b2"></path><g id="SvgjsG1192"><text id="SvgjsText1193" font-family="微软雅黑" text-anchor="middle" font-size="13px" width="846px" fill="#323232" font-weight="400" align="top" lineHeight="125%" anchor="middle" family="微软雅黑" size="13px" weight="400" font-style="" opacity="1" y="-2.625" transform="rotate(0)"><tspan id="SvgjsTspan1194" dy="16" x="433"><tspan id="SvgjsTspan1195" style="text-decoration:;">平台服务</tspan></tspan></text></g></g><g id="SvgjsG1196" transform="translate(167.11289322671132,132.14821076455996)"><path id="SvgjsPath1197" d="M 0 4Q 0 0 4 0L 112.31101754395937 0Q 116.31101754395937 0 116.31101754395937 4L 116.31101754395937 43.21615205609399Q 116.31101754395937 47.21615205609399 112.31101754395937 47.21615205609399L 4 47.21615205609399Q 0 47.21615205609399 0 43.21615205609399Z" stroke="rgba(33,41,48,1)" stroke-width="1" fill-opacity="1" fill="#ffffff"></path><g id="SvgjsG1198"><text id="SvgjsText1199" font-family="微软雅黑" text-anchor="middle" font-size="13px" width="97px" fill="#323232" font-weight="400" align="middle" lineHeight="125%" anchor="middle" family="微软雅黑" size="13px" weight="400" font-style="" opacity="1" y="4.483076028046995" transform="rotate(0)"><tspan id="SvgjsTspan1200" dy="16" x="58.5"><tspan id="SvgjsTspan1201" style="text-decoration:;">开放平台</tspan></tspan><tspan id="SvgjsTspan1202" dy="16" x="58.5"><tspan id="SvgjsTspan1203" style="text-decoration:;">涉及：租户计费</tspan></tspan></text></g></g><g id="SvgjsG1204" transform="translate(304.9790087298775,132.1482107645599)"><path id="SvgjsPath1205" d="M 0 4Q 0 0 4 0L 111.62949799060522 0Q 115.62949799060522 0 115.62949799060522 4L 115.62949799060522 43.21615205609399Q 115.62949799060522 47.21615205609399 111.62949799060522 47.21615205609399L 4 47.21615205609399Q 0 47.21615205609399 0 43.21615205609399Z" stroke="rgba(33,41,48,1)" stroke-width="1" fill-opacity="1" fill="#ffffff"></path><g id="SvgjsG1206"><text id="SvgjsText1207" font-family="微软雅黑" text-anchor="middle" font-size="13px" width="96px" fill="#323232" font-weight="400" align="middle" lineHeight="125%" anchor="middle" family="微软雅黑" size="13px" weight="400" font-style="" opacity="1" y="4.483076028046995" transform="rotate(0)"><tspan id="SvgjsTspan1208" dy="16" x="58"><tspan id="SvgjsTspan1209" style="text-decoration:;">超管平台</tspan></tspan><tspan id="SvgjsTspan1210" dy="16" x="58"><tspan id="SvgjsTspan1211" style="text-decoration:;">涉及：租户管理</tspan></tspan></text></g></g><g id="SvgjsG1212" transform="translate(443.81252288818337,132.1482107645599)"><path id="SvgjsPath1213" d="M 0 4Q 0 0 4 0L 112.98181707208857 0Q 116.98181707208857 0 116.98181707208857 4L 116.98181707208857 43.21615205609399Q 116.98181707208857 47.21615205609399 112.98181707208857 47.21615205609399L 4 47.21615205609399Q 0 47.21615205609399 0 43.21615205609399Z" stroke="rgba(33,41,48,1)" stroke-width="1" fill-opacity="1" fill="#ffffff"></path><g id="SvgjsG1214"><text id="SvgjsText1215" font-family="微软雅黑" text-anchor="middle" font-size="13px" width="97px" fill="#323232" font-weight="400" align="middle" lineHeight="125%" anchor="middle" family="微软雅黑" size="13px" weight="400" font-style="" opacity="1" y="4.483076028046995" transform="rotate(0)"><tspan id="SvgjsTspan1216" dy="16" x="58.5"><tspan id="SvgjsTspan1217" style="text-decoration:;">直播平台</tspan></tspan><tspan id="SvgjsTspan1218" dy="16" x="58.5"><tspan id="SvgjsTspan1219" style="text-decoration:;">涉及：直播业务</tspan></tspan></text></g></g><g id="SvgjsG1220" transform="translate(152.7943399602721,50.84517731085805)"><path id="SvgjsPath1221" d="M 0 4Q 0 0 4 0L 861.2181875055484 0Q 865.2181875055484 0 865.2181875055484 4L 865.2181875055484 50.55482421502086Q 865.2181875055484 54.55482421502086 861.2181875055484 54.55482421502086L 4 54.55482421502086Q 0 54.55482421502086 0 50.55482421502086Z" stroke="rgba(33,41,48,1)" stroke-width="2" fill-opacity="1" fill="#bbdefb"></path><g id="SvgjsG1222"><text id="SvgjsText1223" font-family="微软雅黑" text-anchor="middle" font-size="13px" width="846px" fill="#323232" font-weight="400" align="middle" lineHeight="125%" anchor="middle" family="微软雅黑" size="13px" weight="400" font-style="" opacity="1" y="16.65241210751043" transform="rotate(0)"><tspan id="SvgjsTspan1224" dy="16" x="433"><tspan id="SvgjsTspan1225" style="text-decoration:;">API网关</tspan></tspan></text></g></g><g id="SvgjsG1226" transform="translate(844.7959815743629,751.4416357429066)"><path id="SvgjsPath1227" d="M 0 4Q 0 0 4 0L 126.31328008842047 0Q 130.31328008842047 0 130.31328008842047 4L 130.31328008842047 57.15878781277376Q 130.31328008842047 61.15878781277376 126.31328008842047 61.15878781277376L 4 61.15878781277376Q 0 61.15878781277376 0 57.15878781277376Z" stroke="rgba(33,41,48,1)" stroke-width="1" fill-opacity="1" fill="#fadded"></path><g id="SvgjsG1228"><text id="SvgjsText1229" font-family="微软雅黑" text-anchor="middle" font-size="13px" width="111px" fill="#323232" font-weight="400" align="middle" lineHeight="125%" anchor="middle" family="微软雅黑" size="13px" weight="400" font-style="" opacity="1" y="11.45439390638688" transform="rotate(0)"><tspan id="SvgjsTspan1230" dy="16" x="65.5"><tspan id="SvgjsTspan1231" style="text-decoration:;">livego</tspan></tspan><tspan id="SvgjsTspan1232" dy="16" x="65.5"><tspan id="SvgjsTspan1233" style="text-decoration:;">直播流处理服务</tspan></tspan></text></g></g><g id="SvgjsG1234" transform="translate(169.6008715663462,449.86622779278537)"><path id="SvgjsPath1235" d="M 0 4Q 0 0 4 0L 133.54482051001264 0Q 137.54482051001264 0 137.54482051001264 4L 137.54482051001264 102.99999999999997Q 137.54482051001264 106.99999999999997 133.54482051001264 106.99999999999997L 4 106.99999999999997Q 0 106.99999999999997 0 102.99999999999997Z" stroke="rgba(33,41,48,1)" stroke-width="1" fill-opacity="1" fill="#ffffff"></path><g id="SvgjsG1236"><text id="SvgjsText1237" font-family="微软雅黑" text-anchor="middle" font-size="13px" width="118px" fill="#323232" font-weight="400" align="middle" lineHeight="125%" anchor="middle" family="微软雅黑" size="13px" weight="400" font-style="" opacity="1" y="1.8749999999999858" transform="rotate(0)"><tspan id="SvgjsTspan1238" dy="16" x="69"><tspan id="SvgjsTspan1239" style="text-decoration:;">starter-review</tspan></tspan><tspan id="SvgjsTspan1240" dy="16" x="69"><tspan id="SvgjsTspan1241" style="text-decoration:;">内容审核服务</tspan></tspan><tspan id="SvgjsTspan1242" dy="16" x="69"><tspan id="SvgjsTspan1243" style="text-decoration:;">涉及：</tspan></tspan><tspan id="SvgjsTspan1244" dy="16" x="69"><tspan id="SvgjsTspan1245" style="text-decoration:;">敏感词/广告/情感倾</tspan></tspan><tspan id="SvgjsTspan1246" dy="16" x="69"><tspan id="SvgjsTspan1247" style="text-decoration:;">向识别</tspan><tspan id="SvgjsTspan1248" style="text-decoration:;font-size: inherit;">/图片审核/视</tspan></tspan><tspan id="SvgjsTspan1249" dy="16" x="69"><tspan id="SvgjsTspan1250" style="text-decoration:;font-size: inherit;">频审核/词库管理</tspan></tspan></text></g></g><g id="SvgjsG1251" transform="translate(323.1998199411072,449.86622779278537)"><path id="SvgjsPath1252" d="M 0 4Q 0 0 4 0L 133.54482051001264 0Q 137.54482051001264 0 137.54482051001264 4L 137.54482051001264 102.99999999999997Q 137.54482051001264 106.99999999999997 133.54482051001264 106.99999999999997L 4 106.99999999999997Q 0 106.99999999999997 0 102.99999999999997Z" stroke="rgba(33,41,48,1)" stroke-width="1" fill-opacity="1" fill="#ffffff"></path><g id="SvgjsG1253"><text id="SvgjsText1254" font-family="微软雅黑" text-anchor="middle" font-size="13px" width="118px" fill="#323232" font-weight="400" align="middle" lineHeight="125%" anchor="middle" family="微软雅黑" size="13px" weight="400" font-style="" opacity="1" y="18.374999999999986" transform="rotate(0)"><tspan id="SvgjsTspan1255" dy="16" x="69"><tspan id="SvgjsTspan1256" style="text-decoration:;">starter-comments</tspan></tspan><tspan id="SvgjsTspan1257" dy="16" x="69"><tspan id="SvgjsTspan1258" style="text-decoration:;">评论点赞服务</tspan></tspan><tspan id="SvgjsTspan1259" dy="16" x="69"><tspan id="SvgjsTspan1260" style="text-decoration:;">涉及：</tspan></tspan><tspan id="SvgjsTspan1261" dy="16" x="69"><tspan id="SvgjsTspan1262" style="text-decoration:;">评论/点赞</tspan></tspan></text></g></g><g id="SvgjsG1263" transform="translate(892.1143782079339,829.8474795255713)"><path id="SvgjsPath1264" d="M 0 4Q 0 0 4 0L 78.99488345484951 0Q 82.99488345484951 0 82.99488345484951 4L 82.99488345484951 57.158787812773696Q 82.99488345484951 61.158787812773696 78.99488345484951 61.158787812773696L 4 61.158787812773696Q 0 61.158787812773696 0 57.158787812773696Z" stroke="rgba(33,41,48,1)" stroke-width="1" fill-opacity="1" fill="#fcf9ea"></path><g id="SvgjsG1265"><text id="SvgjsText1266" font-family="微软雅黑" text-anchor="middle" font-size="13px" width="63px" fill="#323232" font-weight="400" align="middle" lineHeight="125%" anchor="middle" family="微软雅黑" size="13px" weight="400" font-style="" opacity="1" y="19.954393906386848" transform="rotate(0)"><tspan id="SvgjsTspan1267" dy="16" x="41.5"><tspan id="SvgjsTspan1268" style="text-decoration:;">...</tspan></tspan></text></g></g><g id="SvgjsG1269" transform="translate(152.79433996027217,583.7469626498712)"><path id="SvgjsPath1270" d="M 0 4Q 0 0 4 0L 861.2181875055483 0Q 865.2181875055483 0 865.2181875055483 4L 865.2181875055483 102.8530358242499Q 865.2181875055483 106.8530358242499 861.2181875055483 106.8530358242499L 4 106.8530358242499Q 0 106.8530358242499 0 102.8530358242499Z" stroke-dasharray="3,4" stroke="rgba(33,41,48,1)" stroke-width="2" fill-opacity="1" fill="#fadcdb"></path><g id="SvgjsG1271"><text id="SvgjsText1272" font-family="微软雅黑" text-anchor="middle" font-size="13px" width="846px" fill="#323232" font-weight="400" align="top" lineHeight="125%" anchor="middle" family="微软雅黑" size="13px" weight="400" font-style="" opacity="1" y="-2.625" transform="rotate(0)"><tspan id="SvgjsTspan1273" dy="16" x="433"><tspan id="SvgjsTspan1274" style="text-decoration:;">技术组件</tspan></tspan></text></g></g><g id="SvgjsG1275" transform="translate(169.6008715663463,604.3360808708892)"><path id="SvgjsPath1276" d="M 0 4Q 0 0 4 0L 132.36352820619004 0Q 136.36352820619004 0 136.36352820619004 4L 136.36352820619004 72.06392065498972Q 136.36352820619004 76.06392065498972 132.36352820619004 76.06392065498972L 4 76.06392065498972Q 0 76.06392065498972 0 72.06392065498972Z" stroke="rgba(33,41,48,1)" stroke-width="1" fill-opacity="1" fill="#ffffff"></path><g id="SvgjsG1277"><text id="SvgjsText1278" font-family="微软雅黑" text-anchor="middle" font-size="13px" width="117px" fill="#323232" font-weight="400" align="middle" lineHeight="125%" anchor="middle" family="微软雅黑" size="13px" weight="400" font-style="" opacity="1" y="18.906960327494858" transform="rotate(0)"><tspan id="SvgjsTspan1279" dy="16" x="68.5"><tspan id="SvgjsTspan1280" style="text-decoration:;">starter-scheduler</tspan></tspan><tspan id="SvgjsTspan1281" dy="16" x="68.5"><tspan id="SvgjsTspan1282" style="text-decoration:;">定时任务中心</tspan></tspan></text></g></g><g id="SvgjsG1283" transform="translate(323.7904660930185,604.3360808708892)"><path id="SvgjsPath1284" d="M 0 4Q 0 0 4 0L 132.36352820619004 0Q 136.36352820619004 0 136.36352820619004 4L 136.36352820619004 72.06392065498972Q 136.36352820619004 76.06392065498972 132.36352820619004 76.06392065498972L 4 76.06392065498972Q 0 76.06392065498972 0 72.06392065498972Z" stroke="rgba(33,41,48,1)" stroke-width="1" fill-opacity="1" fill="#ffffff"></path><g id="SvgjsG1285"><text id="SvgjsText1286" font-family="微软雅黑" text-anchor="middle" font-size="13px" width="117px" fill="#323232" font-weight="400" align="middle" lineHeight="125%" anchor="middle" family="微软雅黑" size="13px" weight="400" font-style="" opacity="1" y="18.906960327494858" transform="rotate(0)"><tspan id="SvgjsTspan1287" dy="16" x="68.5"><tspan id="SvgjsTspan1288" style="text-decoration:;">starter-event事件</tspan></tspan><tspan id="SvgjsTspan1289" dy="16" x="68.5"><tspan id="SvgjsTspan1290" style="text-decoration:;">中心</tspan></tspan></text></g></g><g id="SvgjsG1291" transform="translate(632.1696551463629,604.3360808708892)"><path id="SvgjsPath1292" d="M 0 4Q 0 0 4 0L 132.36352820619004 0Q 136.36352820619004 0 136.36352820619004 4L 136.36352820619004 72.06392065498972Q 136.36352820619004 76.06392065498972 132.36352820619004 76.06392065498972L 4 76.06392065498972Q 0 76.06392065498972 0 72.06392065498972Z" stroke="rgba(33,41,48,1)" stroke-width="1" fill-opacity="1" fill="#ffffff"></path><g id="SvgjsG1293"><text id="SvgjsText1294" font-family="微软雅黑" text-anchor="middle" font-size="13px" width="117px" fill="#323232" font-weight="400" align="middle" lineHeight="125%" anchor="middle" family="微软雅黑" size="13px" weight="400" font-style="" opacity="1" y="18.906960327494858" transform="rotate(0)"><tspan id="SvgjsTspan1295" dy="16" x="68.5"><tspan id="SvgjsTspan1296" style="text-decoration:;">clover/core</tspan></tspan><tspan id="SvgjsTspan1297" dy="16" x="68.5"><tspan id="SvgjsTspan1298" style="text-decoration:;">微服务开发框架</tspan></tspan></text></g></g><g id="SvgjsG1299" transform="translate(784.3649445181593,604.3360808708892)"><path id="SvgjsPath1300" d="M 0 4Q 0 0 4 0L 132.36352820619004 0Q 136.36352820619004 0 136.36352820619004 4L 136.36352820619004 72.06392065498972Q 136.36352820619004 76.06392065498972 132.36352820619004 76.06392065498972L 4 76.06392065498972Q 0 76.06392065498972 0 72.06392065498972Z" stroke="rgba(33,41,48,1)" stroke-width="1" fill-opacity="1" fill="#ffffff"></path><g id="SvgjsG1301"><text id="SvgjsText1302" font-family="微软雅黑" text-anchor="middle" font-size="13px" width="117px" fill="#323232" font-weight="400" align="middle" lineHeight="125%" anchor="middle" family="微软雅黑" size="13px" weight="400" font-style="" opacity="1" y="18.906960327494858" transform="rotate(0)"><tspan id="SvgjsTspan1303" dy="16" x="68.5"><tspan id="SvgjsTspan1304" style="text-decoration:;">clover/global</tspan></tspan><tspan id="SvgjsTspan1305" dy="16" x="68.5"><tspan id="SvgjsTspan1306" style="text-decoration:;">微服务组件库</tspan></tspan></text></g></g><g id="SvgjsG1307" transform="translate(477.9800606196907,604.3360808708892)"><path id="SvgjsPath1308" d="M 0 4Q 0 0 4 0L 132.36352820619004 0Q 136.36352820619004 0 136.36352820619004 4L 136.36352820619004 72.06392065498972Q 136.36352820619004 76.06392065498972 132.36352820619004 76.06392065498972L 4 76.06392065498972Q 0 76.06392065498972 0 72.06392065498972Z" stroke="rgba(33,41,48,1)" stroke-width="1" fill-opacity="1" fill="#ffffff"></path><g id="SvgjsG1309"><text id="SvgjsText1310" font-family="微软雅黑" text-anchor="middle" font-size="13px" width="117px" fill="#323232" font-weight="400" align="middle" lineHeight="125%" anchor="middle" family="微软雅黑" size="13px" weight="400" font-style="" opacity="1" y="18.906960327494858" transform="rotate(0)"><tspan id="SvgjsTspan1311" dy="16" x="68.5"><tspan id="SvgjsTspan1312" style="text-decoration:;">code-generator</tspan></tspan><tspan id="SvgjsTspan1313" dy="16" x="68.5"><tspan id="SvgjsTspan1314" style="text-decoration:;">代码生成器</tspan></tspan></text></g></g><g id="SvgjsG1315" transform="translate(39.01251220703125,50.845177310858105)"><path id="SvgjsPath1316" d="M 0 4Q 0 0 4 0L 96.20001983642578 0Q 100.20001983642578 0 100.20001983642578 4L 100.20001983642578 135.55482421502086Q 100.20001983642578 139.55482421502086 96.20001983642578 139.55482421502086L 4 139.55482421502086Q 0 139.55482421502086 0 135.55482421502086Z" stroke="rgba(33,41,48,1)" stroke-width="2" fill-opacity="1" fill="#e7ebed"></path><g id="SvgjsG1317"><text id="SvgjsText1318" font-family="微软雅黑" text-anchor="middle" font-size="13px" width="81px" fill="#323232" font-weight="400" align="middle" lineHeight="125%" anchor="middle" family="微软雅黑" size="13px" weight="400" font-style="" opacity="1" y="59.15241210751043" transform="rotate(0)"><tspan id="SvgjsTspan1319" dy="16" x="50.5"><tspan id="SvgjsTspan1320" style="text-decoration:;">前台应用</tspan></tspan></text></g></g><g id="SvgjsG1321" transform="translate(39.01251220703125,202.45652201338413)"><path id="SvgjsPath1322" d="M 0 4Q 0 0 4 0L 96.20001983642578 0Q 100.20001983642578 0 100.20001983642578 4L 100.20001983642578 362.4097000573554Q 100.20001983642578 366.4097000573554 96.20001983642578 366.4097000573554L 4 366.4097000573554Q 0 366.4097000573554 0 362.4097000573554Z" stroke="rgba(33,41,48,1)" stroke-width="2" fill-opacity="1" fill="#e7ebed"></path><g id="SvgjsG1323"><text id="SvgjsText1324" font-family="微软雅黑" text-anchor="middle" font-size="13px" width="81px" fill="#323232" font-weight="400" align="middle" lineHeight="125%" anchor="middle" family="微软雅黑" size="13px" weight="400" font-style="" opacity="1" y="172.5798500286777" transform="rotate(0)"><tspan id="SvgjsTspan1325" dy="16" x="50.5"><tspan id="SvgjsTspan1326" style="text-decoration:;">业务中台</tspan></tspan></text></g></g><g id="SvgjsG1327" transform="translate(39.01251220703125,583.7469626498712)"><path id="SvgjsPath1328" d="M 0 4Q 0 0 4 0L 96.20001983642578 0Q 100.20001983642578 0 100.20001983642578 4L 100.20001983642578 102.8530358242499Q 100.20001983642578 106.8530358242499 96.20001983642578 106.8530358242499L 4 106.8530358242499Q 0 106.8530358242499 0 102.8530358242499Z" stroke="rgba(33,41,48,1)" stroke-width="2" fill-opacity="1" fill="#e7ebed"></path><g id="SvgjsG1329"><text id="SvgjsText1330" font-family="微软雅黑" text-anchor="middle" font-size="13px" width="81px" fill="#323232" font-weight="400" align="middle" lineHeight="125%" anchor="middle" family="微软雅黑" size="13px" weight="400" font-style="" opacity="1" y="42.80151791212495" transform="rotate(0)"><tspan id="SvgjsTspan1331" dy="16" x="50.5"><tspan id="SvgjsTspan1332" style="text-decoration:;">技术中台</tspan></tspan></text></g></g><g id="SvgjsG1333" transform="translate(39.01251220703125,705.4807390532528)"><path id="SvgjsPath1334" d="M 0 4Q 0 0 4 0L 96.20001983642578 0Q 100.20001983642578 0 100.20001983642578 4L 100.20001983642578 221.01820369933424Q 100.20001983642578 225.01820369933424 96.20001983642578 225.01820369933424L 4 225.01820369933424Q 0 225.01820369933424 0 221.01820369933424Z" stroke="rgba(33,41,48,1)" stroke-width="2" fill-opacity="1" fill="#e7ebed"></path><g id="SvgjsG1335"><text id="SvgjsText1336" font-family="微软雅黑" text-anchor="middle" font-size="13px" width="81px" fill="#323232" font-weight="400" align="middle" lineHeight="125%" anchor="middle" family="微软雅黑" size="13px" weight="400" font-style="" opacity="1" y="101.88410184966712" transform="rotate(0)"><tspan id="SvgjsTspan1337" dy="16" x="50.5"><tspan id="SvgjsTspan1338" style="text-decoration:;">基础设施</tspan></tspan></text></g></g></svg>