<svg id="SvgjsSvg1360" width="1153" height="926" xmlns="http://www.w3.org/2000/svg" version="1.1" xmlns:xlink="http://www.w3.org/1999/xlink" xmlns:svgjs="http://svgjs.com/svgjs"><defs id="SvgjsDefs1361"><pattern id="SvgjsPattern1482" x="0" y="0" width="21.735739807374465" height="22.044442918565608" patternUnits="userSpaceOnUse"><image id="SvgjsImage1483" xlink:href="https://iconsapi.com/5ee982f1e4b01754b3cccaa9.svg" width="21.735739807374465" height="22.044442918565608" preserveAspectRatio="none" crossOrigin="anonymous" x="0" y="0"></image></pattern><pattern id="SvgjsPattern1490" x="0" y="0" width="20" height="20" patternUnits="userSpaceOnUse"><image id="SvgjsImage1491" xlink:href="https://iconsapi.com/5ee982c9e4b01754b3ccc9bd.svg" width="20" height="20" preserveAspectRatio="none" crossOrigin="anonymous" x="0" y="0"></image></pattern><pattern id="SvgjsPattern1502" x="0" y="0" width="20" height="20" patternUnits="userSpaceOnUse"><image id="SvgjsImage1503" xlink:href="https://iconsapi.com/5ee98300e4b01754b3cccb03.svg" width="20" height="20" preserveAspectRatio="none" crossOrigin="anonymous" x="0" y="0"></image></pattern><pattern id="SvgjsPattern1510" x="0" y="0" width="18.97281317216442" height="20" patternUnits="userSpaceOnUse"><image id="SvgjsImage1511" xlink:href="https://iconsapi.com/5ee982e0e4b01754b3ccca46.svg" width="18.97281317216442" height="20" preserveAspectRatio="none" crossOrigin="anonymous" x="0" y="0"></image></pattern><pattern id="SvgjsPattern1522" x="0" y="0" width="20.250753363211118" height="20.250753363211118" patternUnits="userSpaceOnUse"><image id="SvgjsImage1523" xlink:href="https://iconsapi.com/5ee9831fe4b01754b3cccbb9.svg" width="20.250753363211118" height="20.250753363211118" preserveAspectRatio="none" crossOrigin="anonymous" x="0" y="0"></image></pattern><pattern id="SvgjsPattern1534" x="0" y="0" width="20.909090909090878" height="20.909090909090878" patternUnits="userSpaceOnUse"><image id="SvgjsImage1535" xlink:href="https://iconsapi.com/5ee27fb3e4b0b788a9350d50.svg" width="20.909090909090878" height="20.909090909090878" preserveAspectRatio="none" crossOrigin="anonymous" x="0" y="0"></image></pattern><pattern id="SvgjsPattern1546" x="0" y="0" width="18.97281317216442" height="20" patternUnits="userSpaceOnUse"><image id="SvgjsImage1547" xlink:href="https://iconsapi.com/5ee982e0e4b01754b3ccca46.svg" width="18.97281317216442" height="20" preserveAspectRatio="none" crossOrigin="anonymous" x="0" y="0"></image></pattern><pattern id="SvgjsPattern1712" x="0" y="0" width="20.909090909090764" height="21.3636363636366" patternUnits="userSpaceOnUse"><image id="SvgjsImage1713" xlink:href="https://iconsapi.com/5ee2655ce4b0b788a933153b.svg" width="20.909090909090764" height="21.3636363636366" preserveAspectRatio="none" crossOrigin="anonymous" x="0" y="0"></image></pattern></defs><g id="SvgjsG1362" transform="translate(25.012496948242188,25.012496948242188)"><path id="SvgjsPath1363" d="M 0 0L 1103 0L 1103 876.0000019073486L 0 876.0000019073486Z" stroke="none" fill-opacity="1" fill="#ffffff"></path><g id="SvgjsG1364"><text id="SvgjsText1365" font-family="微软雅黑" text-anchor="middle" font-size="13px" width="1083px" fill="#323232" font-weight="400" align="middle" lineHeight="125%" anchor="middle" family="微软雅黑" size="13px" weight="400" font-style="" opacity="1" y="427.3750009536743" transform="rotate(0)"></text></g></g><g id="SvgjsG1366" transform="translate(483.65003026882516,404.7036470567112)"><path id="SvgjsPath1367" d="M 0 4Q 0 0 4 0L 617.6078392281548 0Q 621.6078392281548 0 621.6078392281548 4L 621.6078392281548 77.44127427959836Q 621.6078392281548 81.44127427959836 617.6078392281548 81.44127427959836L 4 81.44127427959836Q 0 81.44127427959836 0 77.44127427959836Z" stroke-dasharray="3,4" stroke="rgba(33,41,48,1)" stroke-width="2" fill-opacity="1" fill="#fff9c4"></path><g id="SvgjsG1368"><text id="SvgjsText1369" font-family="微软雅黑" text-anchor="middle" font-size="13px" width="602px" fill="#323232" font-weight="400" align="top" lineHeight="125%" anchor="middle" family="微软雅黑" size="13px" weight="400" font-style="" opacity="1" y="-2.625" transform="rotate(0)"><tspan id="SvgjsTspan1370" dy="16" x="311"><tspan id="SvgjsTspan1371" style="text-decoration:;">基础领域服务</tspan></tspan></text></g></g><g id="SvgjsG1372" transform="translate(157.14894299747098,256.0835378514882)"><path id="SvgjsPath1373" d="M 0 4Q 0 0 4 0L 482.3960307664943 0Q 486.3960307664943 0 486.3960307664943 4L 486.3960307664943 80.37673589537107Q 486.3960307664943 84.37673589537107 482.3960307664943 84.37673589537107L 4 84.37673589537107Q 0 84.37673589537107 0 80.37673589537107Z" stroke-dasharray="3,4" stroke="rgba(33,41,48,1)" stroke-width="2" fill-opacity="1" fill="#c8e6c9"></path><g id="SvgjsG1374"><text id="SvgjsText1375" font-family="微软雅黑" text-anchor="middle" font-size="13px" width="467px" fill="#323232" font-weight="400" align="top" lineHeight="125%" anchor="middle" family="微软雅黑" size="13px" weight="400" font-style="" opacity="1" y="-2.625" transform="rotate(0)"><tspan id="SvgjsTspan1376" dy="16" x="243.5"><tspan id="SvgjsTspan1377" style="text-decoration:;">业务领域服务</tspan></tspan></text></g></g><g id="SvgjsG1378" transform="translate(45.63067835027542,573.7397696755152)"><path id="SvgjsPath1379" d="M 0 4Q 0 0 4 0L 1053 0Q 1057 0 1057 4L 1057 296Q 1057 300 1053 300L 4 300Q 0 300 0 296Z" stroke-dasharray="3,4" stroke="rgba(33,41,48,1)" stroke-width="2" fill-opacity="1" fill="#e1bee7"></path><g id="SvgjsG1380"><text id="SvgjsText1381" font-family="微软雅黑" text-anchor="middle" font-size="13px" width="1037px" fill="#323232" font-weight="400" align="top" lineHeight="125%" anchor="middle" family="微软雅黑" size="13px" weight="400" font-style="" opacity="1" y="-2.625" transform="rotate(0)"><tspan id="SvgjsTspan1382" dy="16" x="528.5"><tspan id="SvgjsTspan1383" style="text-decoration:;">基础设施服务</tspan></tspan></text></g></g><g id="SvgjsG1384" transform="translate(654.0998881043508,597.269181440221)"><path id="SvgjsPath1385" d="M 0 4Q 0 0 4 0L 431.9307994011979 0Q 435.9307994011979 0 435.9307994011979 4L 435.9307994011979 248.94117647058795Q 435.9307994011979 252.94117647058795 431.9307994011979 252.94117647058795L 4 252.94117647058795Q 0 252.94117647058795 0 248.94117647058795Z" stroke-dasharray="10,6,3,6" stroke="rgba(33,41,48,1)" stroke-width="2" fill-opacity="1" fill="#ffffff"></path><g id="SvgjsG1386"><text id="SvgjsText1387" font-family="微软雅黑" text-anchor="middle" font-size="13px" width="416px" fill="#323232" font-weight="400" align="top" lineHeight="125%" anchor="middle" family="微软雅黑" size="13px" weight="400" font-style="" opacity="1" y="-2.625" transform="rotate(0)"><tspan id="SvgjsTspan1388" dy="16" x="218"><tspan id="SvgjsTspan1389" style="text-decoration:;">业务相关基础设施</tspan></tspan></text></g></g><g id="SvgjsG1390" transform="translate(666.4141504859033,704.7397696755149)"><path id="SvgjsPath1391" d="M 0 4Q 0 0 4 0L 129.5983464623389 0Q 133.5983464623389 0 133.5983464623389 4L 133.5983464623389 58.72727272727269Q 133.5983464623389 62.72727272727269 129.5983464623389 62.72727272727269L 4 62.72727272727269Q 0 62.72727272727269 0 58.72727272727269Z" stroke="rgba(33,41,48,1)" stroke-width="1" fill-opacity="1" fill="#bbdefb"></path><g id="SvgjsG1392"><text id="SvgjsText1393" font-family="微软雅黑" text-anchor="middle" font-size="13px" width="114px" fill="#323232" font-weight="400" align="middle" lineHeight="125%" anchor="middle" family="微软雅黑" size="13px" weight="400" font-style="" opacity="1" y="12.238636363636346" transform="rotate(0)"><tspan id="SvgjsTspan1394" dy="16" x="67"><tspan id="SvgjsTspan1395" style="text-decoration:;">elasticsearch</tspan></tspan><tspan id="SvgjsTspan1396" dy="16" x="67"><tspan id="SvgjsTspan1397" style="text-decoration:;">搜索引擎</tspan></tspan></text></g></g><g id="SvgjsG1398" transform="translate(58.74231957164946,597.2691814402208)"><path id="SvgjsPath1399" d="M 0 4Q 0 0 4 0L 356.0931452004586 0Q 360.0931452004586 0 360.0931452004586 4L 360.0931452004586 248.94117647058852Q 360.0931452004586 252.94117647058852 356.0931452004586 252.94117647058852L 4 252.94117647058852Q 0 252.94117647058852 0 248.94117647058852Z" stroke-dasharray="10,6,3,6" stroke="rgba(33,41,48,1)" stroke-width="2" fill-opacity="1" fill="#ffffff"></path><g id="SvgjsG1400"><text id="SvgjsText1401" font-family="微软雅黑" text-anchor="middle" font-size="13px" width="341px" fill="#323232" font-weight="400" align="top" lineHeight="125%" anchor="middle" family="微软雅黑" size="13px" weight="400" font-style="" opacity="1" y="-2.625" transform="rotate(0)"><tspan id="SvgjsTspan1402" dy="16" x="180.5"><tspan id="SvgjsTspan1403" style="text-decoration:;">服务治理相关基础设施</tspan></tspan></text></g></g><g id="SvgjsG1404" transform="translate(75.7933838246397,618.0420952569104)"><path id="SvgjsPath1405" d="M 0 4Q 0 0 4 0L 88.5430369839444 0Q 92.5430369839444 0 92.5430369839444 4L 92.5430369839444 207.3953488372092Q 92.5430369839444 211.3953488372092 88.5430369839444 211.3953488372092L 4 211.3953488372092Q 0 211.3953488372092 0 207.3953488372092Z" stroke="rgba(33,41,48,1)" stroke-width="1" fill-opacity="1" fill="#ffcdd2"></path><g id="SvgjsG1406"><text id="SvgjsText1407" font-family="微软雅黑" text-anchor="middle" font-size="13px" width="73px" fill="#323232" font-weight="400" align="middle" lineHeight="125%" anchor="middle" family="微软雅黑" size="13px" weight="400" font-style="" opacity="1" y="78.5726744186046" transform="rotate(0)"><tspan id="SvgjsTspan1408" dy="16" x="46.5"><tspan id="SvgjsTspan1409" style="text-decoration:;">consul</tspan></tspan><tspan id="SvgjsTspan1410" dy="16" x="46.5"><tspan id="SvgjsTspan1411" style="text-decoration:;">注册中心</tspan></tspan><tspan id="SvgjsTspan1412" dy="16" x="46.5"><tspan id="SvgjsTspan1413" style="text-decoration:;">配置中心</tspan></tspan></text></g></g><g id="SvgjsG1414" transform="translate(187.30923398074853,618.0420952569104)"><path id="SvgjsPath1415" d="M 0 4Q 0 0 4 0L 97.02484988286005 0Q 101.02484988286005 0 101.02484988286005 4L 101.02484988286005 98Q 101.02484988286005 102 97.02484988286005 102L 4 102Q 0 102 0 98Z" stroke="rgba(33,41,48,1)" stroke-width="1" fill-opacity="1" fill="#b2ebf2"></path><g id="SvgjsG1416"><text id="SvgjsText1417" font-family="微软雅黑" text-anchor="middle" font-size="13px" width="82px" fill="#323232" font-weight="400" align="middle" lineHeight="125%" anchor="middle" family="微软雅黑" size="13px" weight="400" font-style="" opacity="1" y="31.875" transform="rotate(0)"><tspan id="SvgjsTspan1418" dy="16" x="51"><tspan id="SvgjsTspan1419" style="text-decoration:;">jaeger</tspan></tspan><tspan id="SvgjsTspan1420" dy="16" x="51"><tspan id="SvgjsTspan1421" style="text-decoration:;">链路追踪</tspan></tspan></text></g></g><g id="SvgjsG1422" transform="translate(187.25139921147388,790.04209525691)"><path id="SvgjsPath1423" d="M 0 4Q 0 0 4 0L 214.36040469865605 0Q 218.36040469865605 0 218.36040469865605 4L 218.36040469865605 35.39534883720922Q 218.36040469865605 39.39534883720922 214.36040469865605 39.39534883720922L 4 39.39534883720922Q 0 39.39534883720922 0 35.39534883720922Z" stroke="rgba(33,41,48,1)" stroke-width="1" fill-opacity="1" fill="#c8e6c9"></path><g id="SvgjsG1424"><text id="SvgjsText1425" font-family="微软雅黑" text-anchor="middle" font-size="13px" width="199px" fill="#323232" font-weight="400" align="middle" lineHeight="125%" anchor="middle" family="微软雅黑" size="13px" weight="400" font-style="" opacity="1" y="0.5726744186046098" transform="rotate(0)"><tspan id="SvgjsTspan1426" dy="16" x="109.5"><tspan id="SvgjsTspan1427" style="text-decoration:;">otel-collector</tspan></tspan><tspan id="SvgjsTspan1428" dy="16" x="109.5"><tspan id="SvgjsTspan1429" style="text-decoration:;">遥测代理服务</tspan></tspan></text></g></g><g id="SvgjsG1430" transform="translate(304.5291192579952,704.04209525691)"><path id="SvgjsPath1431" d="M 0 4Q 0 0 4 0L 97.02484988286001 0Q 101.02484988286001 0 101.02484988286001 4L 101.02484988286001 44.04651162790695Q 101.02484988286001 48.04651162790695 97.02484988286001 48.04651162790695L 4 48.04651162790695Q 0 48.04651162790695 0 44.04651162790695Z" stroke="rgba(33,41,48,1)" stroke-width="1" fill-opacity="1" fill="#e1bee7"></path><g id="SvgjsG1432"><text id="SvgjsText1433" font-family="微软雅黑" text-anchor="middle" font-size="13px" width="82px" fill="#323232" font-weight="400" align="middle" lineHeight="125%" anchor="middle" family="微软雅黑" size="13px" weight="400" font-style="" opacity="1" y="4.898255813953476" transform="rotate(0)"><tspan id="SvgjsTspan1434" dy="16" x="51"><tspan id="SvgjsTspan1435" style="text-decoration:;">prometheus</tspan></tspan><tspan id="SvgjsTspan1436" dy="16" x="51"><tspan id="SvgjsTspan1437" style="text-decoration:;">指标收集</tspan></tspan></text></g></g><g id="SvgjsG1438" transform="translate(220.0943415026627,728.7397696755147)"><path id="SvgjsPath1439" d="M 18.694550669216028 0L 37.389101338432056 18.694550669216028L 25.05069789674948 18.694550669216028L 25.05069789674948 54.8604651162791L 12.33840344168258 54.8604651162791L 12.33840344168258 18.694550669216028L 0 18.694550669216028L 18.694550669216028 0Z" stroke="rgba(33,41,48,1)" stroke-width="2" fill-opacity="1" fill="#ffffff"></path><g id="SvgjsG1440"><text id="SvgjsText1441" font-family="微软雅黑" text-anchor="middle" font-size="13px" width="53px" fill="#323232" font-weight="400" align="middle" lineHeight="125%" anchor="middle" family="微软雅黑" size="13px" weight="400" font-style="" opacity="1" y="19.548255813953507" transform="rotate(0)"></text></g></g><g id="SvgjsG1442" transform="translate(337.3142267799094,758.7397696755147)"><path id="SvgjsPath1443" d="M 18.694550669216053 0L 37.389101338432106 11.187209302325588L 25.05069789674951 11.187209302325588L 25.05069789674951 24.860465116279084L 12.338403441682596 24.860465116279084L 12.338403441682596 11.187209302325588L 0 11.187209302325588L 18.694550669216053 0Z" stroke="rgba(33,41,48,1)" stroke-width="2" fill-opacity="1" fill="#ffffff"></path><g id="SvgjsG1444"><text id="SvgjsText1445" font-family="微软雅黑" text-anchor="middle" font-size="13px" width="53px" fill="#323232" font-weight="400" align="middle" lineHeight="125%" anchor="middle" family="微软雅黑" size="13px" weight="400" font-style="" opacity="1" y="3.0482558139534968" transform="rotate(0)"></text></g></g><g id="SvgjsG1446" transform="translate(430.86872806346855,597.269181440221)"><path id="SvgjsPath1447" d="M 0 4Q 0 0 4 0L 207.197896749522 0Q 211.197896749522 0 211.197896749522 4L 211.197896749522 248.9411764705882Q 211.197896749522 252.9411764705882 207.197896749522 252.9411764705882L 4 252.9411764705882Q 0 252.9411764705882 0 248.9411764705882Z" stroke-dasharray="10,6,3,6" stroke="rgba(33,41,48,1)" stroke-width="2" fill-opacity="1" fill="#ffffff"></path><g id="SvgjsG1448"><text id="SvgjsText1449" font-family="微软雅黑" text-anchor="middle" font-size="13px" width="192px" fill="#323232" font-weight="400" align="top" lineHeight="125%" anchor="middle" family="微软雅黑" size="13px" weight="400" font-style="" opacity="1" y="-2.625" transform="rotate(0)"><tspan id="SvgjsTspan1450" dy="16" x="106"><tspan id="SvgjsTspan1451" style="text-decoration:;">日志治理相关基础设施</tspan></tspan></text></g></g><g id="SvgjsG1452" transform="translate(442.59810763754365,790.7397696755147)"><path id="SvgjsPath1453" d="M 0 4Q 0 0 4 0L 184.0325707127316 0Q 188.0325707127316 0 188.0325707127316 4L 188.0325707127316 35.39534883720922Q 188.0325707127316 39.39534883720922 184.0325707127316 39.39534883720922L 4 39.39534883720922Q 0 39.39534883720922 0 35.39534883720922Z" stroke="rgba(33,41,48,1)" stroke-width="1" fill-opacity="1" fill="#ffe0b2"></path><g id="SvgjsG1454"><text id="SvgjsText1455" font-family="微软雅黑" text-anchor="middle" font-size="13px" width="169px" fill="#323232" font-weight="400" align="middle" lineHeight="125%" anchor="middle" family="微软雅黑" size="13px" weight="400" font-style="" opacity="1" y="0.5726744186046098" transform="rotate(0)"><tspan id="SvgjsTspan1456" dy="16" x="94.5"><tspan id="SvgjsTspan1457" style="text-decoration:;">filebeat</tspan></tspan><tspan id="SvgjsTspan1458" dy="16" x="94.5"><tspan id="SvgjsTspan1459" style="text-decoration:;">日志文件扫描器</tspan></tspan></text></g></g><g id="SvgjsG1460" transform="translate(441.63087438784345,704.0420952569102)"><path id="SvgjsPath1461" d="M 0 4Q 0 0 4 0L 184.03257071273197 0Q 188.03257071273197 0 188.03257071273197 4L 188.03257071273197 44.04651162790674Q 188.03257071273197 48.04651162790674 184.03257071273197 48.04651162790674L 4 48.04651162790674Q 0 48.04651162790674 0 44.04651162790674Z" stroke="rgba(33,41,48,1)" stroke-width="1" fill-opacity="1" fill="#bbdefb"></path><g id="SvgjsG1462"><text id="SvgjsText1463" font-family="微软雅黑" text-anchor="middle" font-size="13px" width="169px" fill="#323232" font-weight="400" align="middle" lineHeight="125%" anchor="middle" family="微软雅黑" size="13px" weight="400" font-style="" opacity="1" y="4.898255813953369" transform="rotate(0)"><tspan id="SvgjsTspan1464" dy="16" x="94.5"><tspan id="SvgjsTspan1465" style="text-decoration:;">elasticsearch</tspan></tspan><tspan id="SvgjsTspan1466" dy="16" x="94.5"><tspan id="SvgjsTspan1467" style="text-decoration:;">日志数据库</tspan></tspan></text></g></g><g id="SvgjsG1468" transform="translate(337.3142267799094,671.9397666237574)"><path id="SvgjsPath1469" d="M 18.694550669216053 0L 37.389101338432106 11.814071140732873L 25.05069789674951 11.814071140732873L 25.05069789674951 26.25349142385083L 12.338403441682596 26.25349142385083L 12.338403441682596 11.814071140732873L 0 11.814071140732873L 18.694550669216053 0Z" stroke="rgba(33,41,48,1)" stroke-width="2" fill-opacity="1" fill="#ffffff"></path><g id="SvgjsG1470"><text id="SvgjsText1471" font-family="微软雅黑" text-anchor="middle" font-size="13px" width="53px" fill="#323232" font-weight="400" align="middle" lineHeight="125%" anchor="middle" family="微软雅黑" size="13px" weight="400" font-style="" opacity="1" y="3.814420283117955" transform="rotate(0)"></text></g></g><g id="SvgjsG1472" transform="translate(304.5291192579952,618.0420952569104)"><path id="SvgjsPath1473" d="M 0 4Q 0 0 4 0L 97.02484988286001 0Q 101.02484988286001 0 101.02484988286001 4L 101.02484988286001 44.04651162790695Q 101.02484988286001 48.04651162790695 97.02484988286001 48.04651162790695L 4 48.04651162790695Q 0 48.04651162790695 0 44.04651162790695Z" stroke="rgba(33,41,48,1)" stroke-width="1" fill-opacity="1" fill="#e0e0e0"></path><g id="SvgjsG1474"><text id="SvgjsText1475" font-family="微软雅黑" text-anchor="middle" font-size="13px" width="82px" fill="#000000" font-weight="400" align="middle" lineHeight="125%" anchor="middle" family="微软雅黑" size="13px" weight="400" font-style="" opacity="1" y="4.898255813953476" transform="rotate(0)"><tspan id="SvgjsTspan1476" dy="16" x="51"><tspan id="SvgjsTspan1477" style="text-decoration:;">grafana</tspan></tspan><tspan id="SvgjsTspan1478" dy="16" x="51"><tspan id="SvgjsTspan1479" style="text-decoration:;">视图面板</tspan></tspan></text></g></g><g id="SvgjsG1480" transform="translate(308.27413028547323,629.028660090283)"><path id="SvgjsPath1481" d="M 0 0L 21.735739807374465 0L 21.735739807374465 22.044442918565608L 0 22.044442918565608Z" stroke="none" fill="url(#SvgjsPattern1482)"></path></g><g id="SvgjsG1484" transform="translate(517.9198423246936,758.7397696755147)"><path id="SvgjsPath1485" d="M 18.694550669216053 0L 37.389101338432106 11.187209302325588L 25.05069789674951 11.187209302325588L 25.05069789674951 24.860465116279084L 12.338403441682596 24.860465116279084L 12.338403441682596 11.187209302325588L 0 11.187209302325588L 18.694550669216053 0Z" stroke="rgba(33,41,48,1)" stroke-width="2" fill-opacity="1" fill="#ffffff"></path><g id="SvgjsG1486"><text id="SvgjsText1487" font-family="微软雅黑" text-anchor="middle" font-size="13px" width="53px" fill="#323232" font-weight="400" align="middle" lineHeight="125%" anchor="middle" family="微软雅黑" size="13px" weight="400" font-style="" opacity="1" y="3.0482558139534968" transform="rotate(0)"></text></g></g><g id="SvgjsG1488" transform="translate(446.0306798761545,800.4374440941187)"><path id="SvgjsPath1489" d="M 0 0L 20 0L 20 20L 0 20Z" stroke="none" fill="url(#SvgjsPattern1490)"></path></g><g id="SvgjsG1492" transform="translate(441.63087438784345,618.0420952569102)"><path id="SvgjsPath1493" d="M 0 4Q 0 0 4 0L 184.03257071273174 0Q 188.03257071273174 0 188.03257071273174 4L 188.03257071273174 38.62222374810108Q 188.03257071273174 42.62222374810108 184.03257071273174 42.62222374810108L 4 42.62222374810108Q 0 42.62222374810108 0 38.62222374810108Z" stroke="rgba(33,41,48,1)" stroke-width="1" fill-opacity="1" fill="#c8e6c9"></path><g id="SvgjsG1494"><text id="SvgjsText1495" font-family="微软雅黑" text-anchor="middle" font-size="13px" width="169px" fill="#323232" font-weight="400" align="middle" lineHeight="125%" anchor="middle" family="微软雅黑" size="13px" weight="400" font-style="" opacity="1" y="2.186111874050539" transform="rotate(0)"><tspan id="SvgjsTspan1496" dy="16" x="94.5"><tspan id="SvgjsTspan1497" style="text-decoration:;">kibana</tspan></tspan><tspan id="SvgjsTspan1498" dy="16" x="94.5"><tspan id="SvgjsTspan1499" style="text-decoration:;">数据分析视图面板</tspan></tspan></text></g></g><g id="SvgjsG1500" transform="translate(446.0306798761536,627.0420952569107)"><path id="SvgjsPath1501" d="M 0 0L 20 0L 20 20L 0 20Z" stroke="none" fill="url(#SvgjsPattern1502)"></path></g><g id="SvgjsG1504" transform="translate(517.9198423246936,671.9397666237574)"><path id="SvgjsPath1505" d="M 18.694550669216053 0L 37.389101338432106 11.814071140732873L 25.05069789674951 11.814071140732873L 25.05069789674951 26.25349142385083L 12.338403441682596 26.25349142385083L 12.338403441682596 11.814071140732873L 0 11.814071140732873L 18.694550669216053 0Z" stroke="rgba(33,41,48,1)" stroke-width="2" fill-opacity="1" fill="#ffffff"></path><g id="SvgjsG1506"><text id="SvgjsText1507" font-family="微软雅黑" text-anchor="middle" font-size="13px" width="53px" fill="#323232" font-weight="400" align="middle" lineHeight="125%" anchor="middle" family="微软雅黑" size="13px" weight="400" font-style="" opacity="1" y="3.814420283117955" transform="rotate(0)"></text></g></g><g id="SvgjsG1508" transform="translate(447.05786670398913,713.7397696755147)"><path id="SvgjsPath1509" d="M 0 0L 18.97281317216442 0L 18.97281317216442 20L 0 20Z" stroke="none" fill="url(#SvgjsPattern1510)"></path></g><g id="SvgjsG1512" transform="translate(666.4141504859033,621.4124963933773)"><path id="SvgjsPath1513" d="M 0 4Q 0 0 4 0L 129.5983464623389 0Q 133.5983464623389 0 133.5983464623389 4L 133.5983464623389 58.72727272727269Q 133.5983464623389 62.72727272727269 129.5983464623389 62.72727272727269L 4 62.72727272727269Q 0 62.72727272727269 0 58.72727272727269Z" stroke="rgba(33,41,48,1)" stroke-width="1" fill-opacity="1" fill="#b2ebf2"></path><g id="SvgjsG1514"><text id="SvgjsText1515" font-family="微软雅黑" text-anchor="middle" font-size="13px" width="114px" fill="#323232" font-weight="400" align="middle" lineHeight="125%" anchor="middle" family="微软雅黑" size="13px" weight="400" font-style="" opacity="1" y="12.238636363636346" transform="rotate(0)"><tspan id="SvgjsTspan1516" dy="16" x="67"><tspan id="SvgjsTspan1517" style="text-decoration:;">PostgreSQL</tspan></tspan><tspan id="SvgjsTspan1518" dy="16" x="67"><tspan id="SvgjsTspan1519" style="text-decoration:;">关系数据库</tspan></tspan></text></g></g><g id="SvgjsG1520" transform="translate(670.7799258193621,636.6162884847117)"><path id="SvgjsPath1521" d="M 0 0L 20.250753363211118 0L 20.250753363211118 20.250753363211118L 0 20.250753363211118Z" stroke="none" fill="url(#SvgjsPattern1522)"></path></g><g id="SvgjsG1524" transform="translate(815.3782048554857,621.4124963933773)"><path id="SvgjsPath1525" d="M 0 4Q 0 0 4 0L 120.61652869666966 0Q 124.61652869666966 0 124.61652869666966 4L 124.61652869666966 58.72727272727269Q 124.61652869666966 62.72727272727269 120.61652869666966 62.72727272727269L 4 62.72727272727269Q 0 62.72727272727269 0 58.72727272727269Z" stroke="rgba(33,41,48,1)" stroke-width="1" fill-opacity="1" fill="#e57373"></path><g id="SvgjsG1526"><text id="SvgjsText1527" font-family="微软雅黑" text-anchor="middle" font-size="13px" width="105px" fill="#323232" font-weight="400" align="middle" lineHeight="125%" anchor="middle" family="微软雅黑" size="13px" weight="400" font-style="" opacity="1" y="12.238636363636346" transform="rotate(0)"><tspan id="SvgjsTspan1528" dy="16" x="62.5"><tspan id="SvgjsTspan1529" style="text-decoration:;">redis</tspan></tspan><tspan id="SvgjsTspan1530" dy="16" x="62.5"><tspan id="SvgjsTspan1531" style="text-decoration:;">缓存</tspan></tspan></text></g></g><g id="SvgjsG1532" transform="translate(819.0856426430643,636.287119711772)"><path id="SvgjsPath1533" d="M 0 0L 20.909090909090878 0L 20.909090909090878 20.909090909090878L 0 20.909090909090878Z" stroke="none" fill="url(#SvgjsPattern1534)"></path></g><g id="SvgjsG1536" transform="translate(952.650932128213,621.4124963933773)"><path id="SvgjsPath1537" d="M 0 4Q 0 0 4 0L 120.61652869666966 0Q 124.61652869666966 0 124.61652869666966 4L 124.61652869666966 58.72727272727269Q 124.61652869666966 62.72727272727269 120.61652869666966 62.72727272727269L 4 62.72727272727269Q 0 62.72727272727269 0 58.72727272727269Z" stroke="rgba(33,41,48,1)" stroke-width="1" fill-opacity="1" fill="#c8e6c9"></path><g id="SvgjsG1538"><text id="SvgjsText1539" font-family="微软雅黑" text-anchor="middle" font-size="13px" width="105px" fill="#323232" font-weight="400" align="middle" lineHeight="125%" anchor="middle" family="微软雅黑" size="13px" weight="400" font-style="" opacity="1" y="12.238636363636346" transform="rotate(0)"><tspan id="SvgjsTspan1540" dy="16" x="62.5"><tspan id="SvgjsTspan1541" style="text-decoration:;">NSQ</tspan></tspan><tspan id="SvgjsTspan1542" dy="16" x="62.5"><tspan id="SvgjsTspan1543" style="text-decoration:;">消息队列</tspan></tspan></text></g></g><g id="SvgjsG1544" transform="translate(671.4188959148855,718.7630254894683)"><path id="SvgjsPath1545" d="M 0 0L 18.97281317216442 0L 18.97281317216442 20L 0 20Z" stroke="none" fill="url(#SvgjsPattern1546)"></path></g><g id="SvgjsG1548" transform="translate(500.56371148025755,424.01248931884766)"><path id="SvgjsPath1549" d="M 0 4Q 0 0 4 0L 96.73018964986622 0Q 100.73018964986622 0 100.73018964986622 4L 100.73018964986622 45.46090714043869Q 100.73018964986622 49.46090714043869 96.73018964986622 49.46090714043869L 4 49.46090714043869Q 0 49.46090714043869 0 45.46090714043869Z" stroke="rgba(33,41,48,1)" stroke-width="1" fill-opacity="1" fill="#ffffff"></path><g id="SvgjsG1550"><text id="SvgjsText1551" font-family="微软雅黑" text-anchor="middle" font-size="13px" width="81px" fill="#323232" font-weight="400" align="middle" lineHeight="125%" anchor="middle" family="微软雅黑" size="13px" weight="400" font-style="" opacity="1" y="5.605453570219346" transform="rotate(0)"><tspan id="SvgjsTspan1552" dy="16" x="50.5"><tspan id="SvgjsTspan1553" style="text-decoration:;">starter-auth</tspan></tspan><tspan id="SvgjsTspan1554" dy="16" x="50.5"><tspan id="SvgjsTspan1555" style="text-decoration:;">权限中心服务</tspan></tspan></text></g></g><g id="SvgjsG1556" transform="translate(171.34506921081024,277.01248931884766)"><path id="SvgjsPath1557" d="M 0 4Q 0 0 4 0L 101.45157616403614 0Q 105.45157616403614 0 105.45157616403614 4L 105.45157616403614 44.78124064775575Q 105.45157616403614 48.78124064775575 101.45157616403614 48.78124064775575L 4 48.78124064775575Q 0 48.78124064775575 0 44.78124064775575Z" stroke="rgba(33,41,48,1)" stroke-width="1" fill-opacity="1" fill="#ffffff"></path><g id="SvgjsG1558"><text id="SvgjsText1559" font-family="微软雅黑" text-anchor="middle" font-size="13px" width="86px" fill="#323232" font-weight="400" align="middle" lineHeight="125%" anchor="middle" family="微软雅黑" size="13px" weight="400" font-style="" opacity="1" y="5.265620323877876" transform="rotate(0)"><tspan id="SvgjsTspan1560" dy="16" x="53"><tspan id="SvgjsTspan1561" style="text-decoration:;">starter-admin</tspan></tspan><tspan id="SvgjsTspan1562" dy="16" x="53"><tspan id="SvgjsTspan1563" style="text-decoration:;">超管业务服务</tspan></tspan></text></g></g><g id="SvgjsG1564" transform="translate(300.00262638058956,277.01248931884766)"><path id="SvgjsPath1565" d="M 0 4Q 0 0 4 0L 101.45157616403614 0Q 105.45157616403614 0 105.45157616403614 4L 105.45157616403614 44.78124064775575Q 105.45157616403614 48.78124064775575 101.45157616403614 48.78124064775575L 4 48.78124064775575Q 0 48.78124064775575 0 44.78124064775575Z" stroke="rgba(33,41,48,1)" stroke-width="1" fill-opacity="1" fill="#ffffff"></path><g id="SvgjsG1566"><text id="SvgjsText1567" font-family="微软雅黑" text-anchor="middle" font-size="13px" width="86px" fill="#323232" font-weight="400" align="middle" lineHeight="125%" anchor="middle" family="微软雅黑" size="13px" weight="400" font-style="" opacity="1" y="5.265620323877876" transform="rotate(0)"><tspan id="SvgjsTspan1568" dy="16" x="53"><tspan id="SvgjsTspan1569" style="text-decoration:;">starter-live直</tspan></tspan><tspan id="SvgjsTspan1570" dy="16" x="53"><tspan id="SvgjsTspan1571" style="text-decoration:;">播业务服务</tspan></tspan></text></g></g><g id="SvgjsG1572" transform="translate(155.0124969482422,139.03472984140944)"><path id="SvgjsPath1573" d="M 0 4Q 0 0 4 0L 948.3818185979669 0Q 952.3818185979669 0 952.3818185979669 4L 952.3818185979669 67.44986756703412Q 952.3818185979669 71.44986756703412 948.3818185979669 71.44986756703412L 4 71.44986756703412Q 0 71.44986756703412 0 67.44986756703412Z" stroke-dasharray="3,4" stroke="rgba(33,41,48,1)" stroke-width="2" fill-opacity="1" fill="#ffe0b2"></path><g id="SvgjsG1574"><text id="SvgjsText1575" font-family="微软雅黑" text-anchor="middle" font-size="13px" width="933px" fill="#323232" font-weight="400" align="top" lineHeight="125%" anchor="middle" family="微软雅黑" size="13px" weight="400" font-style="" opacity="1" y="-2.625" transform="rotate(0)"><tspan id="SvgjsTspan1576" dy="16" x="476.5"><tspan id="SvgjsTspan1577" style="text-decoration:;">平台</tspan></tspan></text></g></g><g id="SvgjsG1578" transform="translate(169.33105021468154,155.01249694824224)"><path id="SvgjsPath1579" d="M 0 4Q 0 0 4 0L 94.43911147132737 0Q 98.43911147132737 0 98.43911147132737 4L 98.43911147132737 43.21615205609399Q 98.43911147132737 47.21615205609399 94.43911147132737 47.21615205609399L 4 47.21615205609399Q 0 47.21615205609399 0 43.21615205609399Z" stroke="rgba(33,41,48,1)" stroke-width="1" fill-opacity="1" fill="#ffffff"></path><g id="SvgjsG1580"><text id="SvgjsText1581" font-family="微软雅黑" text-anchor="middle" font-size="13px" width="79px" fill="#323232" font-weight="400" align="middle" lineHeight="125%" anchor="middle" family="微软雅黑" size="13px" weight="400" font-style="" opacity="1" y="12.983076028046995" transform="rotate(0)"><tspan id="SvgjsTspan1582" dy="16" x="49.5"><tspan id="SvgjsTspan1583" style="text-decoration:;">开放平台</tspan></tspan></text></g></g><g id="SvgjsG1584" transform="translate(295.9611853542792,155.01249694824224)"><path id="SvgjsPath1585" d="M 0 4Q 0 0 4 0L 94.43911147132737 0Q 98.43911147132737 0 98.43911147132737 4L 98.43911147132737 43.21615205609399Q 98.43911147132737 47.21615205609399 94.43911147132737 47.21615205609399L 4 47.21615205609399Q 0 47.21615205609399 0 43.21615205609399Z" stroke="rgba(33,41,48,1)" stroke-width="1" fill-opacity="1" fill="#ffffff"></path><g id="SvgjsG1586"><text id="SvgjsText1587" font-family="微软雅黑" text-anchor="middle" font-size="13px" width="79px" fill="#323232" font-weight="400" align="middle" lineHeight="125%" anchor="middle" family="微软雅黑" size="13px" weight="400" font-style="" opacity="1" y="12.983076028046995" transform="rotate(0)"><tspan id="SvgjsTspan1588" dy="16" x="49.5"><tspan id="SvgjsTspan1589" style="text-decoration:;">超管平台</tspan></tspan></text></g></g><g id="SvgjsG1590" transform="translate(422.82666370845294,155.0124969482422)"><path id="SvgjsPath1591" d="M 0 4Q 0 0 4 0L 94.43911147132737 0Q 98.43911147132737 0 98.43911147132737 4L 98.43911147132737 43.21615205609399Q 98.43911147132737 47.21615205609399 94.43911147132737 47.21615205609399L 4 47.21615205609399Q 0 47.21615205609399 0 43.21615205609399Z" stroke="rgba(33,41,48,1)" stroke-width="1" fill-opacity="1" fill="#ffffff"></path><g id="SvgjsG1592"><text id="SvgjsText1593" font-family="微软雅黑" text-anchor="middle" font-size="13px" width="79px" fill="#323232" font-weight="400" align="middle" lineHeight="125%" anchor="middle" family="微软雅黑" size="13px" weight="400" font-style="" opacity="1" y="12.983076028046995" transform="rotate(0)"><tspan id="SvgjsTspan1594" dy="16" x="49.5"><tspan id="SvgjsTspan1595" style="text-decoration:;">直播平台</tspan></tspan></text></g></g><g id="SvgjsG1596" transform="translate(50.394315546209555,40.85767425910023)"><path id="SvgjsPath1597" d="M 0 4Q 0 0 4 0L 1052.9999999999995 0Q 1056.9999999999995 0 1056.9999999999995 4L 1056.9999999999995 46.3999959772283Q 1056.9999999999995 50.3999959772283 1052.9999999999995 50.3999959772283L 4 50.3999959772283Q 0 50.3999959772283 0 46.3999959772283Z" stroke="rgba(33,41,48,1)" stroke-width="1" fill-opacity="1" fill="#bbdefb"></path><g id="SvgjsG1598"><text id="SvgjsText1599" font-family="微软雅黑" text-anchor="middle" font-size="13px" width="1037px" fill="#323232" font-weight="400" align="middle" lineHeight="125%" anchor="middle" family="微软雅黑" size="13px" weight="400" font-style="" opacity="1" y="14.57499798861415" transform="rotate(0)"><tspan id="SvgjsTspan1600" dy="16" x="528.5"><tspan id="SvgjsTspan1601" style="text-decoration:;">traefik网关</tspan></tspan></text></g></g><g id="SvgjsG1602" transform="translate(304.42763198315987,354.6049354570666)"><path id="SvgjsPath1603" d="M 31.87851643643549 0L 64.72304852245993 0L 64.72304852245993 158.5473050709072L 96.60156495889542 158.5473050709072L 48.30078247944771 206.84808755035493L 0 158.5473050709072L 31.87851643643549 158.5473050709072L 31.87851643643549 0Z" stroke="rgba(33,41,48,1)" stroke-width="2" fill-opacity="1" fill="#ffffff"></path><g id="SvgjsG1604"><text id="SvgjsText1605" font-family="微软雅黑" text-anchor="middle" font-size="13px" width="136px" fill="#323232" font-weight="400" align="middle" lineHeight="125%" anchor="middle" family="微软雅黑" size="13px" weight="400" font-style="" opacity="1" y="65.95663939765973" transform="rotate(0)"><tspan id="SvgjsTspan1606" dy="16" x="48.67968700822091"><tspan id="SvgjsTspan1607" style="text-decoration:;">TCP</tspan></tspan><tspan id="SvgjsTspan1608" dy="16" x="48.67968700822091"><tspan id="SvgjsTspan1609" style="text-decoration:;">http</tspan></tspan><tspan id="SvgjsTspan1610" dy="16" x="48.67968700822091"><tspan id="SvgjsTspan1611" style="text-decoration:;">gRPC</tspan></tspan></text></g></g><g id="SvgjsG1612" transform="translate(738.9390708807938,496.88527640005736)"><path id="SvgjsPath1613" d="M 30.679257345032827 0L 62.28818915506665 0L 62.28818915506665 35.5122606340503L 92.96744650009947 35.5122606340503L 46.483723250049735 64.56774660736419L 0 35.5122606340503L 30.679257345032827 35.5122606340503L 30.679257345032827 0Z" stroke="rgba(33,41,48,1)" stroke-width="2" fill-opacity="1" fill="#ffffff"></path><g id="SvgjsG1614"><text id="SvgjsText1615" font-family="微软雅黑" text-anchor="middle" font-size="13px" width="131px" fill="#323232" font-weight="400" align="middle" lineHeight="125%" anchor="middle" family="微软雅黑" size="13px" weight="400" font-style="" opacity="1" y="1.930485973313882" transform="rotate(0)"><tspan id="SvgjsTspan1616" dy="16" x="46.9065106999801"><tspan id="SvgjsTspan1617" style="text-decoration:;">TCP</tspan></tspan><tspan id="SvgjsTspan1618" dy="16" x="46.9065106999801"><tspan id="SvgjsTspan1619" style="text-decoration:;">http</tspan></tspan><tspan id="SvgjsTspan1620" dy="16" x="46.9065106999801"><tspan id="SvgjsTspan1621" style="text-decoration:;">gRPC</tspan></tspan></text></g></g><g id="SvgjsG1622" transform="translate(582.0124969482422,101.01248931884766)"><path id="SvgjsPath1623" d="M 29.829050940246717 0L 60.56201251504637 0L 60.56201251504637 15.547081792023459L 90.39106345529308 15.547081792023459L 45.19553172764654 28.267421440042654L 0 15.547081792023459L 29.829050940246717 15.547081792023459L 29.829050940246717 0Z" stroke="rgba(33,41,48,1)" stroke-width="2" fill-opacity="1" fill="#ffffff"></path><g id="SvgjsG1624"><text id="SvgjsText1625" font-family="微软雅黑" text-anchor="middle" font-size="13px" width="127px" fill="#323232" font-weight="400" align="middle" lineHeight="125%" anchor="middle" family="微软雅黑" size="13px" weight="400" font-style="" opacity="1" y="2.095339648019195" transform="rotate(0)"><tspan id="SvgjsTspan1626" dy="16" x="45.42178730894138"><tspan id="SvgjsTspan1627" style="text-decoration:;">http</tspan></tspan></text></g></g><g id="SvgjsG1628" transform="translate(304.09825854092134,220.15035690994455)"><path id="SvgjsPath1629" d="M 27.192101743164343 0L 55.20820656945488 0L 55.20820656945488 14.44708179202346L 82.40030831261922 14.44708179202346L 41.20015415630961 26.267421440042657L 0 14.44708179202346L 27.192101743164343 14.44708179202346L 27.192101743164343 0Z" stroke="rgba(33,41,48,1)" stroke-width="2" fill-opacity="1" fill="#ffffff"></path><g id="SvgjsG1630"><text id="SvgjsText1631" font-family="微软雅黑" text-anchor="middle" font-size="13px" width="116px" fill="#323232" font-weight="400" align="middle" lineHeight="125%" anchor="middle" family="微软雅黑" size="13px" weight="400" font-style="" opacity="1" y="1.1953396480191962" transform="rotate(0)"><tspan id="SvgjsTspan1632" dy="16" x="41.519938337476155"><tspan id="SvgjsTspan1633" style="text-decoration:;">http</tspan></tspan></text></g></g><g id="SvgjsG1634" transform="translate(864.3528628967852,220.15035690994455)"><path id="SvgjsPath1635" d="M 28.267679236980822 0L 57.391954814476215 0L 57.391954814476215 113.41328075272986L 85.65963405145703 113.41328075272986L 42.82981702572852 156.24309777845838L 0 113.41328075272986L 28.267679236980822 113.41328075272986L 28.267679236980822 0Z" stroke="rgba(33,41,48,1)" stroke-width="2" fill-opacity="1" fill="#ffffff"></path><g id="SvgjsG1636"><text id="SvgjsText1637" font-family="微软雅黑" text-anchor="middle" font-size="13px" width="120px" fill="#323232" font-weight="400" align="middle" lineHeight="125%" anchor="middle" family="微软雅黑" size="13px" weight="400" font-style="" opacity="1" y="59.68439400030627" transform="rotate(0)"><tspan id="SvgjsTspan1638" dy="16" x="42.868073189708596"><tspan id="SvgjsTspan1639" style="text-decoration:;">http</tspan></tspan></text></g></g><g id="SvgjsG1640" transform="translate(505.5634561279717,348.01248931884766)"><path id="SvgjsPath1641" d="M 34.46818347068927 0L 69.98085734958124 0L 69.98085734958124 28.424707617844522L 104.44904082027051 28.424707617844522L 52.224520410135256 51.68128657789913L 0 28.424707617844522L 34.46818347068927 28.424707617844522L 34.46818347068927 0Z" stroke="rgba(33,41,48,1)" stroke-width="2" fill-opacity="1" fill="#ffffff"></path><g id="SvgjsG1642"><text id="SvgjsText1643" font-family="微软雅黑" text-anchor="middle" font-size="13px" width="147px" fill="#323232" font-weight="400" align="middle" lineHeight="125%" anchor="middle" family="微软雅黑" size="13px" weight="400" font-style="" opacity="1" y="12.63157896005461" transform="rotate(0)"><tspan id="SvgjsTspan1644" dy="16" x="52.6101918359459"><tspan id="SvgjsTspan1645" style="text-decoration:;">gRPC</tspan></tspan></text></g></g><g id="SvgjsG1646" transform="translate(425.27302012451173,277.01248931884766)"><path id="SvgjsPath1647" d="M 0 4Q 0 0 4 0L 101.45157616403614 0Q 105.45157616403614 0 105.45157616403614 4L 105.45157616403614 44.78124064775575Q 105.45157616403614 48.78124064775575 101.45157616403614 48.78124064775575L 4 48.78124064775575Q 0 48.78124064775575 0 44.78124064775575Z" stroke="rgba(33,41,48,1)" stroke-width="1" fill-opacity="1" fill="#ffffff"></path><g id="SvgjsG1648"><text id="SvgjsText1649" font-family="微软雅黑" text-anchor="middle" font-size="13px" width="86px" fill="#323232" font-weight="400" align="middle" lineHeight="125%" anchor="middle" family="微软雅黑" size="13px" weight="400" font-style="" opacity="1" y="5.265620323877876" transform="rotate(0)"><tspan id="SvgjsTspan1650" dy="16" x="53"><tspan id="SvgjsTspan1651" style="text-decoration:;">后期可扩展的</tspan></tspan><tspan id="SvgjsTspan1652" dy="16" x="53"><tspan id="SvgjsTspan1653" style="text-decoration:;">其他领域服务</tspan></tspan></text></g></g><g id="SvgjsG1654" transform="translate(617.833091313445,424.01248931884766)"><path id="SvgjsPath1655" d="M 0 4Q 0 0 4 0L 97.1794056347971 0Q 101.1794056347971 0 101.1794056347971 4L 101.1794056347971 45.46090714043869Q 101.1794056347971 49.46090714043869 97.1794056347971 49.46090714043869L 4 49.46090714043869Q 0 49.46090714043869 0 45.46090714043869Z" stroke="rgba(33,41,48,1)" stroke-width="1" fill-opacity="1" fill="#ffffff"></path><g id="SvgjsG1656"><text id="SvgjsText1657" font-family="微软雅黑" text-anchor="middle" font-size="13px" width="82px" fill="#323232" font-weight="400" align="middle" lineHeight="125%" anchor="middle" family="微软雅黑" size="13px" weight="400" font-style="" opacity="1" y="5.605453570219346" transform="rotate(0)"><tspan id="SvgjsTspan1658" dy="16" x="51"><tspan id="SvgjsTspan1659" style="text-decoration:;">后期可扩展的</tspan></tspan><tspan id="SvgjsTspan1660" dy="16" x="51"><tspan id="SvgjsTspan1661" style="text-decoration:;">其他领域服务</tspan></tspan></text></g></g><g id="SvgjsG1662" transform="translate(74.01249694824219,101.01248931884766)"><path id="SvgjsPath1663" d="M 21.12 0L 42.88 0L 42.88 428.44053368857385L 64 428.44053368857385L 32 460.44053368857385L 0 428.44053368857385L 21.12 428.44053368857385L 21.12 0Z" stroke="rgba(33,41,48,1)" stroke-width="2" fill-opacity="1" fill="#ffffff"></path><g id="SvgjsG1664"><text id="SvgjsText1665" font-family="微软雅黑" text-anchor="middle" font-size="13px" width="90px" fill="#323232" font-weight="400" align="top" lineHeight="125%" anchor="middle" family="微软雅黑" size="13px" weight="400" font-style="" opacity="1" y="149.3203761172294" transform="rotate(0)"><tspan id="SvgjsTspan1666" dy="16" x="32.2"><tspan id="SvgjsTspan1667" style="text-decoration:;">基</tspan></tspan><tspan id="SvgjsTspan1668" dy="16" x="32.2"><tspan id="SvgjsTspan1669" style="text-decoration:;">于</tspan></tspan><tspan id="SvgjsTspan1670" dy="16" x="32.2"><tspan id="SvgjsTspan1671" style="text-decoration:;">服</tspan></tspan><tspan id="SvgjsTspan1672" dy="16" x="32.2"><tspan id="SvgjsTspan1673" style="text-decoration:;">务</tspan></tspan><tspan id="SvgjsTspan1674" dy="16" x="32.2"><tspan id="SvgjsTspan1675" style="text-decoration:;">发</tspan></tspan><tspan id="SvgjsTspan1676" dy="16" x="32.2"><tspan id="SvgjsTspan1677" style="text-decoration:;">现</tspan></tspan><tspan id="SvgjsTspan1678" dy="16" x="32.2"><tspan id="SvgjsTspan1679" style="text-decoration:;">实</tspan></tspan><tspan id="SvgjsTspan1680" dy="16" x="32.2"><tspan id="SvgjsTspan1681" style="text-decoration:;">现</tspan></tspan><tspan id="SvgjsTspan1682" dy="16" x="32.2"><tspan id="SvgjsTspan1683" style="text-decoration:;">动</tspan></tspan><tspan id="SvgjsTspan1684" dy="16" x="32.2"><tspan id="SvgjsTspan1685" style="text-decoration:;">态</tspan></tspan><tspan id="SvgjsTspan1686" dy="16" x="32.2"><tspan id="SvgjsTspan1687" style="text-decoration:;">路</tspan></tspan><tspan id="SvgjsTspan1688" dy="16" x="32.2"><tspan id="SvgjsTspan1689" style="text-decoration:;">由</tspan></tspan><tspan id="SvgjsTspan1690" dy="16" x="32.2"><tspan id="SvgjsTspan1691" style="text-decoration:;"> </tspan></tspan><tspan id="SvgjsTspan1692" dy="16" x="32.2"><tspan id="SvgjsTspan1693" style="text-decoration:;"> </tspan></tspan><tspan id="SvgjsTspan1694" dy="16" x="32.2"><tspan id="SvgjsTspan1695" style="text-decoration:;"> </tspan></tspan><tspan id="SvgjsTspan1696" dy="16" x="32.2"><tspan id="SvgjsTspan1697" style="text-decoration:;"> </tspan></tspan><tspan id="SvgjsTspan1698" dy="16" x="32.2"><tspan id="SvgjsTspan1699" style="text-decoration:;"> </tspan></tspan><tspan id="SvgjsTspan1700" dy="16" x="32.2"><tspan id="SvgjsTspan1701" style="text-decoration:;">gRPC</tspan></tspan></text></g></g><g id="SvgjsG1702" transform="translate(815.3782048554857,704.7397696755149)"><path id="SvgjsPath1703" d="M 0 4Q 0 0 4 0L 120.61652869666955 0Q 124.61652869666955 0 124.61652869666955 4L 124.61652869666955 58.72727272727275Q 124.61652869666955 62.72727272727275 120.61652869666955 62.72727272727275L 4 62.72727272727275Q 0 62.72727272727275 0 58.72727272727275Z" stroke="rgba(33,41,48,1)" stroke-width="1" fill-opacity="1" fill="#bbdefb"></path><g id="SvgjsG1704"><text id="SvgjsText1705" font-family="微软雅黑" text-anchor="middle" font-size="13px" width="105px" fill="#323232" font-weight="400" align="middle" lineHeight="125%" anchor="middle" family="微软雅黑" size="13px" weight="400" font-style="" opacity="1" y="12.238636363636374" transform="rotate(0)"><tspan id="SvgjsTspan1706" dy="16" x="62.5"><tspan id="SvgjsTspan1707" style="text-decoration:;">livego</tspan></tspan><tspan id="SvgjsTspan1708" dy="16" x="62.5"><tspan id="SvgjsTspan1709" style="text-decoration:;">直播推拉流引擎</tspan></tspan></text></g></g><g id="SvgjsG1710" transform="translate(819.0856426430643,718.08120730765)"><path id="SvgjsPath1711" d="M 0 0L 20.909090909090764 0L 20.909090909090764 21.3636363636366L 0 21.3636363636366Z" stroke="none" fill="url(#SvgjsPattern1712)"></path></g></svg>